<?xml version="1.0" encoding="UTF-8"?>
<svg version="1.1" xmlns="http://www.w3.org/2000/svg" width="552" height="133">
<path d="M0 0 C2.28054636 2.17334119 2.92469745 3.46397539 3.36328125 6.5859375 C3.26914982 11.75592501 3.08820311 16.17103032 1 21 C3.31 21.33 5.62 21.66 8 22 C8.495 23.485 8.495 23.485 9 25 C10.6018675 26.11800502 10.6018675 26.11800502 12.5 27 C14.40625 27.9375 14.40625 27.9375 16 29 C17.12758089 32.38274266 16.81750262 33.76778223 16.0625 37.1875 C15.86785156 38.08855469 15.67320313 38.98960938 15.47265625 39.91796875 C15.31667969 40.60503906 15.16070312 41.29210938 15 42 C16.98 42.495 16.98 42.495 19 43 C19.91525881 48.03392345 20.52238079 51.75934562 18.5 56.5625 C14.26783566 60.68886023 9.58829244 60.01917081 4 60 C4.19916016 61.63582031 4.19916016 61.63582031 4.40234375 63.3046875 C4.58189627 64.82798789 4.76018217 66.35143787 4.9375 67.875 C5.0317627 68.67695801 5.12602539 69.47891602 5.22314453 70.30517578 C5.69957412 74.55989913 6.06735708 78.78288678 6.21484375 83.0625 C6.24392822 83.86961426 6.2730127 84.67672852 6.30297852 85.50830078 C6.35014799 87.05833767 6.38119615 88.60896879 6.39428711 90.15966797 C6.50694629 93.78539521 6.71447683 95.64883932 9.0390625 98.5078125 C9.68617187 99.00023438 10.33328125 99.49265625 11 100 C9.25 104.875 9.25 104.875 7 106 C4.5390625 105.984375 4.5390625 105.984375 1.625 105.75 C0.66851562 105.68296875 -0.28796875 105.6159375 -1.2734375 105.546875 C-4.3508954 104.92961983 -5.84962506 104.28763292 -8 102 C-8.28515625 99.8203125 -8.28515625 99.8203125 -8.0625 97.125 C-7.82243009 90.85220557 -8.57113421 84.93515337 -9.5 78.75 C-9.6431665 77.79625488 -9.78633301 76.84250977 -9.93383789 75.85986328 C-10.2827085 73.57215312 -10.63769339 71.28561511 -11 69 C-11.51283306 72.43570873 -12.00780398 75.87377918 -12.5 79.3125 C-12.64308594 80.26962891 -12.78617188 81.22675781 -12.93359375 82.21289062 C-13.76633802 88.10158227 -14.09039217 93.66989947 -13.75976562 99.61401367 C-14.0573847 102.56993967 -14.97332562 103.8664813 -17 106 C-18.953125 106.2421875 -18.953125 106.2421875 -21.25 105.875 C-22.13042969 105.74609375 -23.01085937 105.6171875 -23.91796875 105.484375 C-24.93503906 105.32453125 -25.95210937 105.1646875 -27 105 C-28.21300781 104.86078125 -29.42601563 104.7215625 -30.67578125 104.578125 C-37.82843731 103.74424751 -44.27767084 102.59458319 -51 100 C-50.731875 98.741875 -50.46375 97.48375 -50.1875 96.1875 C-49.4533656 92.56368763 -48.82427525 88.93603398 -48.26953125 85.28125 C-48.14231689 84.44440674 -48.01510254 83.60756348 -47.8840332 82.74536133 C-47.63115972 81.06109213 -47.3834646 79.37603603 -47.14135742 77.69018555 C-46.51681197 73.53261823 -45.80810294 69.84221874 -44 66 C-43.01 66 -42.02 66 -41 66 C-40.89042969 64.78183594 -40.78085937 63.56367187 -40.66796875 62.30859375 C-40.50840885 60.68483712 -40.34821907 59.0611423 -40.1875 57.4375 C-40.11724609 56.63763672 -40.04699219 55.83777344 -39.97460938 55.01367188 C-38.90274592 44.50941005 -34.02642995 35.57963618 -26.1875 28.4375 C-24 27 -24 27 -22 26 C-22.7425 25.505 -23.485 25.01 -24.25 24.5 C-28.24180103 20.87108997 -30.54355455 17.04296964 -31.3515625 11.65625 C-31.52041138 7.05128054 -31.21699392 3.53869332 -28 0 C-20.14995202 -4.02075628 -8.13697071 -2.6256283 0 0 Z M0 39 C0.33 39.66 0.66 40.32 1 41 C2.65 40.34 4.3 39.68 6 39 C2.95086772 37.98888907 2.95086772 37.98888907 0 39 Z M-25 44 C-27.23559978 46.16867199 -27.23559978 46.16867199 -29 49 C-29.09616096 51.68805807 -29.09616096 51.68805807 -28 54 C-26.515 54.99 -26.515 54.99 -25 56 C-24.01751476 51.9472484 -23.91840426 48.16138263 -24 44 C-24.33 44 -24.66 44 -25 44 Z " fill="#969596" transform="translate(58,10)"/>
<path d="M0 0 C12 0 12 0 15.1484375 2.96484375 C15.93505714 4.26316078 16.67712955 5.5893997 17.375 6.9375 C18.13231893 8.23856867 18.89013764 9.53934655 19.6484375 10.83984375 C20.42445313 12.21269531 21.20046875 13.58554687 22 15 C23.98 17.97 25.96 20.94 28 24 C28.33 16.08 28.66 8.16 29 0 C32.96 0 36.92 0 41 0 C41 15.51 41 31.02 41 47 C37.04 47 33.08 47 29 47 C25.93009929 43.56587378 24.16960048 40.94828196 22 37 C20.82905885 35.13830197 19.62981335 33.29748408 18.42285156 31.45898438 C16.59206135 28.65431366 14.79996138 25.82455478 13 23 C12.67 30.92 12.34 38.84 12 47 C8.04 47 4.08 47 0 47 C0 31.49 0 15.98 0 0 Z " fill="#117F0A" transform="translate(351,48)"/>
<path d="M0 0 C6.67042169 4.01917586 11.13312986 9.86882588 13.19140625 17.34765625 C14.78842802 25.27521476 12.56462182 31.76443205 8.9375 38.75 C5.32386847 43.04729154 0.9359348 45.7296884 -4.375 47.5 C-12.29300077 48.11372052 -19.89357794 48.63679138 -26.375 43.5 C-31.40384933 38.8509036 -34.96311024 33.64178039 -35.65625 26.671875 C-35.90613557 18.38400353 -34.81389892 11.18790239 -28.99609375 4.88671875 C-20.95103678 -1.99519745 -9.92033599 -4.28727699 0 0 Z M-19.375 12.5 C-22.69524488 17.30863052 -23.11551042 21.8396601 -22.375 27.5 C-21.10632436 31.10570972 -20.05151798 32.93623501 -17.125 35.375 C-13.53427487 36.84393301 -11.22728124 37.04067105 -7.375 36.5 C-3.86861949 34.25062382 -1.86921146 32.44544801 0.0625 28.75 C0.91087128 23.84829925 1.13010623 19.02605242 -1.4921875 14.625 C-3.24703397 12.46518896 -4.86994273 10.75252864 -7.375 9.5 C-12.33634453 9.1255589 -15.48822241 9.26101867 -19.375 12.5 Z " fill="#117F0A" transform="translate(292.375,48.5)"/>
<path d="M0 0 C4.00125 -0.0825 8.0025 -0.165 12.125 -0.25 C13.37555176 -0.28641602 14.62610352 -0.32283203 15.91455078 -0.36035156 C22.21690187 -0.423304 26.31965283 -0.43526143 31 4 C33.68705259 8.74712624 34.67801883 12.57584934 34 18 C32.58967622 21.73811624 31.12511976 24.4897906 27.35546875 26.19921875 C26.57816406 26.46347656 25.80085938 26.72773437 25 27 C29.43149132 32.73324189 33.92395014 38.40933528 38.49609375 44.03125 C40 46 40 46 40 47 C27.61978779 48.78275056 27.61978779 48.78275056 23.34033203 45.87060547 C19.99927601 42.65414232 17.47900862 38.89856724 15 35 C14.34 34.01 13.68 33.02 13 32 C12.67 36.95 12.34 41.9 12 47 C8.04 47 4.08 47 0 47 C0 31.49 0 15.98 0 0 Z M12 9 C12 12.63 12 16.26 12 20 C16.1460881 20.34778172 16.1460881 20.34778172 19.875 18.8125 C21.40659584 16.34492892 21.42822025 14.85480169 21 12 C19.98029682 10.06345052 19.98029682 10.06345052 18 9 C14.87450983 8.74951364 14.87450983 8.74951364 12 9 Z " fill="#157D0E" transform="translate(431,48)"/>
<path d="M0 0 C5.754375 -0.12375 5.754375 -0.12375 11.625 -0.25 C12.82334473 -0.28641602 14.02168945 -0.32283203 15.25634766 -0.36035156 C21.50132043 -0.42537059 25.29091491 -0.25387353 30 4 C33.3873761 7.83902624 33.50930733 11.63624609 33.35546875 16.56640625 C32.55535367 22.04411718 28.76073012 25.28667404 25 29 C25.59167969 29.65226562 26.18335938 30.30453125 26.79296875 30.9765625 C39 44.47797716 39 44.47797716 39 47 C33.97589103 47.85430193 28.91523876 48.63520192 24 47 C19.24315214 43.34867161 16.09795427 38.04947223 13 33 C12.67 37.62 12.34 42.24 12 47 C8.04 47 4.08 47 0 47 C0 31.49 0 15.98 0 0 Z M12 9 C12 12.63 12 16.26 12 20 C14.91652174 20.16681109 14.91652174 20.16681109 18 20 C20.3721969 18.05541686 20.3721969 18.05541686 20.3125 14.5 C20.209375 13.345 20.10625 12.19 20 11 C16.90754997 8.53774984 16.90754997 8.53774984 12 9 Z " fill="#137E0C" transform="translate(310,48)"/>
<path d="M0 0 C2.57651139 0.96552497 4.29386972 1.90466337 5.76171875 4.26953125 C5.57959206 7.45674836 4.19429772 9.71569226 2.63671875 12.45703125 C1.36828125 12.24046875 1.36828125 12.24046875 0.07421875 12.01953125 C-1.06015625 11.83390625 -2.19453125 11.64828125 -3.36328125 11.45703125 C-4.60078125 11.25078125 -5.83828125 11.04453125 -7.11328125 10.83203125 C-10.24580707 10.17046545 -10.24580707 10.17046545 -12.36328125 11.45703125 C-12.34128654 13.36552047 -12.34128654 13.36552047 -11.36328125 15.45703125 C-8.53946093 17.27296581 -8.53946093 17.27296581 -5.11328125 18.83203125 C0.89289978 21.89439329 4.58590806 24.35540988 7.63671875 30.45703125 C7.67831765 35.15770665 7.30185371 39.2546719 5.01171875 43.39453125 C-1.16393417 48.75759826 -6.91576185 48.99130407 -14.90234375 48.8125 C-19.51224476 48.33902258 -23.62673374 47.28563264 -27.36328125 44.45703125 C-28.74609375 42.58203125 -28.74609375 42.58203125 -29.36328125 40.45703125 C-28.46484375 38.31640625 -28.46484375 38.31640625 -26.98828125 36.20703125 C-26.50617188 35.500625 -26.0240625 34.79421875 -25.52734375 34.06640625 C-25.14320312 33.5353125 -24.7590625 33.00421875 -24.36328125 32.45703125 C-19.60295067 34.30827092 -19.60295067 34.30827092 -17.55078125 35.58203125 C-14.15414989 36.94068379 -11.00227728 36.57833112 -7.36328125 36.45703125 C-7.03328125 35.46703125 -6.70328125 34.47703125 -6.36328125 33.45703125 C-8.82479456 30.65571307 -11.48689909 29.245717 -14.80078125 27.58203125 C-19.75016518 24.95369263 -22.825942 22.53170975 -25.36328125 17.45703125 C-25.75019411 12.81407697 -25.8351886 10.40084595 -23.73828125 6.20703125 C-17.15226877 -1.41887793 -9.64802626 -2.21665397 0 0 Z " fill="#F73433" transform="translate(106.36328125,47.54296875)"/>
<path d="M0 0 C-0.59082014 1.48454806 -1.19812655 2.96254351 -1.8125 4.4375 C-2.14894531 5.26121094 -2.48539063 6.08492187 -2.83203125 6.93359375 C-4 9 -4 9 -7 10 C-7.70125 9.67 -8.4025 9.34 -9.125 9 C-14.11015344 7.26603359 -18.92364107 8.46986581 -23.9375 9.75 C-26.13265135 10.87206919 -26.13265135 10.87206919 -27.3125 13.0625 C-28.49331378 18.10779526 -28.49331378 22.89220474 -27.3125 27.9375 C-25.50106425 30.78404189 -24.27114166 31.1648149 -21 32 C-15.06889166 33.15728943 -10.69146932 33.05861656 -5 31 C-3.35 34.3 -1.7 37.6 0 41 C-7.34005639 45.79350621 -14.38992293 46.02847644 -23 45 C-30.39383216 42.87206687 -35.75793325 38.36310012 -40 32 C-43.07771907 25.77226646 -43.11434217 18.29515432 -41.3828125 11.62109375 C-38.45711699 5.00591497 -32.90885393 0.84029534 -26.9375 -2.9375 C-18.11399241 -6.19040602 -7.74397339 -5.05728874 0 0 Z " fill="#117E09" transform="translate(256,51)"/>
<path d="M0 0 C9.24 0 18.48 0 28 0 C28 3.3 28 6.6 28 10 C22.72 10 17.44 10 12 10 C12 12.64 12 15.28 12 18 C13.60681641 17.98259766 13.60681641 17.98259766 15.24609375 17.96484375 C16.64322743 17.95546701 18.04036299 17.94636669 19.4375 17.9375 C20.14455078 17.92912109 20.85160156 17.92074219 21.58007812 17.91210938 C23.38693559 17.90346412 25.19387603 17.94779989 27 18 C28 19 28 19 28.1328125 21.03125 C28.13023437 21.8459375 28.12765625 22.660625 28.125 23.5 C28.12886719 24.72203125 28.12886719 24.72203125 28.1328125 25.96875 C28 28 28 28 27 29 C24.46950598 29.07313567 21.96695163 29.09247527 19.4375 29.0625 C18.72658203 29.05798828 18.01566406 29.05347656 17.28320312 29.04882812 C15.52209987 29.03700864 13.76103964 29.01907263 12 29 C12 31.64 12 34.28 12 37 C17.28 37 22.56 37 28 37 C28 40.3 28 43.6 28 47 C18.76 47 9.52 47 0 47 C0 31.49 0 15.98 0 0 Z " fill="#11800B" transform="translate(398,48)"/>
<path d="M0 0 C9.24 0 18.48 0 28 0 C28 3.3 28 6.6 28 10 C22.72 10 17.44 10 12 10 C12 12.64 12 15.28 12 18 C16.95 18 21.9 18 27 18 C27 21.63 27 25.26 27 29 C22.05 29 17.1 29 12 29 C12 31.64 12 34.28 12 37 C17.28 37 22.56 37 28 37 C28 40.3 28 43.6 28 47 C18.76 47 9.52 47 0 47 C0 31.49 0 15.98 0 0 Z " fill="#F63434" transform="translate(118,48)"/>
<path d="M0 0 C1.19882812 0.15275391 1.19882812 0.15275391 2.421875 0.30859375 C3.02515625 0.39238281 3.6284375 0.47617187 4.25 0.5625 C4.58 1.5525 4.91 2.5425 5.25 3.5625 C6.8518675 4.68050502 6.8518675 4.68050502 8.75 5.5625 C10.65625 6.5 10.65625 6.5 12.25 7.5625 C13.37758089 10.94524266 13.06750262 12.33028223 12.3125 15.75 C12.11785156 16.65105469 11.92320313 17.55210938 11.72265625 18.48046875 C11.56667969 19.16753906 11.41070312 19.85460937 11.25 20.5625 C12.57 20.8925 13.89 21.2225 15.25 21.5625 C16.16525881 26.59642345 16.77238079 30.32184562 14.75 35.125 C11.50809756 38.28585488 9.74557066 38.5625 5.25 38.5625 C1.29334792 37.78530048 -1.84280728 36.58386341 -5.25 34.5 C-8.75115545 32.36437456 -11.6844341 31.89438293 -15.75 31.5625 C-16.28187714 25.71185145 -14.79256633 21.28196608 -12.83984375 15.78515625 C-11.15126517 10.79204755 -9.95034474 5.69124573 -8.75 0.5625 C-5.62819599 -0.40411363 -3.22916205 -0.42738909 0 0 Z M-3.75 17.5625 C-3.42 18.2225 -3.09 18.8825 -2.75 19.5625 C-1.1 18.9025 0.55 18.2425 2.25 17.5625 C-0.79913228 16.55138907 -0.79913228 16.55138907 -3.75 17.5625 Z " fill="#1F7FC3" transform="translate(61.75,31.4375)"/>
<path d="M0 0 C3.96 0 7.92 0 12 0 C12 12.21 12 24.42 12 37 C17.28 37 22.56 37 28 37 C29 38 29 38 29 47 C19.43 47 9.86 47 0 47 C0 31.49 0 15.98 0 0 Z " fill="#F73434" transform="translate(183,48)"/>
<path d="M0 0 C3.96 0 7.92 0 12 0 C12 12.21 12 24.42 12 37 C17.28 37 22.56 37 28 37 C28 40.3 28 43.6 28 47 C18.76 47 9.52 47 0 47 C0 31.49 0 15.98 0 0 Z " fill="#F23636" transform="translate(151,48)"/>
<path d="M0 0 C2.475 0.495 2.475 0.495 5 1 C6.32 11.23 7.64 21.46 9 32 C7.68 32 6.36 32 5 32 C5 31.34 5 30.68 5 30 C4.4225 30.61875 3.845 31.2375 3.25 31.875 C-1.28236942 36.15557112 -5.03894255 36.37166752 -11.09765625 36.2578125 C-15.25748001 35.88829922 -19.33457198 35.07139304 -23 33 C-23.33 32.01 -23.66 31.02 -24 30 C-22.00812602 28.00812602 -18.0505273 28.68700042 -15.34765625 28.57421875 C-12.85897807 28.23874173 -12.85897807 28.23874173 -11.6796875 26.1171875 C-10.76574763 23.27031733 -10.92649635 21.79110949 -12 19 C-14.49759982 17.30117552 -14.49759982 17.30117552 -17 16 C-17 15.34 -17 14.68 -17 14 C-14.69 14 -12.38 14 -10 14 C-10 13.01 -10 12.02 -10 11 C-11.64821244 9.96986723 -13.31503702 8.96885372 -15 8 C-15 7.34 -15 6.68 -15 6 C-16.32 6.33 -17.64 6.66 -19 7 C-18.34 5.68 -17.68 4.36 -17 3 C-16.34 3.33 -15.68 3.66 -15 4 C-15 3.34 -15 2.68 -15 2 C-13.25093341 1.80398392 -11.50068154 1.61852597 -9.75 1.4375 C-8.77546875 1.33308594 -7.8009375 1.22867188 -6.796875 1.12109375 C-4.2368648 1.01025532 -2.41851841 1.22261908 0 2 C0 1.34 0 0.68 0 0 Z " fill="#0D830B" transform="translate(34,76)"/>
<path d="M0 0 C2.28054636 2.17334119 2.92469745 3.46397539 3.36328125 6.5859375 C3.26914982 11.75592501 3.08820311 16.17103032 1 21 C-3.3164922 21.76173392 -6.74433453 22.16063604 -11 21 C-7.91190305 19.23537317 -6.76687864 19 -3 19 C-3.33 18.34 -3.66 17.68 -4 17 C-4.70125 17.185625 -5.4025 17.37125 -6.125 17.5625 C-9.33888698 18.05156976 -11.83560336 17.66231558 -15 17 C-15 16.01 -15 15.02 -15 14 C-15.33 14.99 -15.66 15.98 -16 17 C-16.66 17 -17.32 17 -18 17 C-17.67 18.32 -17.34 19.64 -17 21 C-17.66 21 -18.32 21 -19 21 C-19.33 21.99 -19.66 22.98 -20 24 C-20.99 23.01 -21.98 22.02 -23 21 C-23.66 21.66 -24.32 22.32 -25 23 C-28.73985974 19.63412623 -30.69529273 16.93481208 -31.22265625 11.85546875 C-31.40204101 7.15246817 -31.30677271 3.63744998 -28 0 C-20.14995202 -4.02075628 -8.13697071 -2.6256283 0 0 Z " fill="#BFBFBF" transform="translate(58,10)"/>
<path d="M0 0 C0.33 0.66 0.66 1.32 1 2 C0.4225 2.474375 -0.155 2.94875 -0.75 3.4375 C-5.54793651 8.90181658 -7.46743529 14.73780243 -7.3359375 21.95703125 C-6.94655601 24.32501401 -6.2754508 25.96888828 -5 28 C-2.46229997 29.28254644 -2.46229997 29.28254644 0 30 C-0.33 30.99 -0.66 31.98 -1 33 C2.76624671 34.25541557 4.37188934 33.37061958 8 32 C6.824375 31.4225 5.64875 30.845 4.4375 30.25 C2.5 28.89453125 2.5 28.89453125 1 27 C0.36795109 21.20885188 1.35968333 16.1370178 4 11 C4 10.01 4 9.02 4 8 C4.66 8.33 5.32 8.66 6 9 C6.33 8.34 6.66 7.68 7 7 C11.58553747 4.41328655 16.21201313 4.77033334 21.3125 4.875 C22.14845703 4.88402344 22.98441406 4.89304687 23.84570312 4.90234375 C25.89725969 4.92579011 27.94866777 4.96165734 30 5 C29.34 6.32 28.68 7.64 28 9 C27.030625 8.649375 26.06125 8.29875 25.0625 7.9375 C19.58067527 6.36967589 14.49082465 7.36404477 9.0625 8.75 C6.86734865 9.87206919 6.86734865 9.87206919 5.6875 12.0625 C4.50668622 17.10779526 4.50668622 21.89220474 5.6875 26.9375 C7.49893575 29.78404189 8.72885834 30.1648149 12 31 C17.93110834 32.15728943 22.30853068 32.05861656 28 30 C29.65 33.3 31.3 36.6 33 40 C25.65994361 44.79350621 18.61007707 45.02847644 10 44 C2.60616784 41.87206687 -2.75793325 37.36310012 -7 31 C-10.0654852 24.79702156 -10.2272387 17.15934413 -8.27734375 10.55078125 C-6.25137676 6.2445761 -3.5379578 3.14485138 0 0 Z " fill="#117E0B" transform="translate(223,52)"/>
<path d="M0 0 C0.28875 0.804375 0.5775 1.60875 0.875 2.4375 C1.73262568 5.1326468 1.73262568 5.1326468 4 6 C4.33 4.68 4.66 3.36 5 2 C7.40707965 18.54867257 7.40707965 18.54867257 4 24 C1.875 24.8125 1.875 24.8125 0 25 C-2.15059309 21.46813168 -2.3797728 18.33712007 -2.625 14.25 C-2.69976562 13.07953125 -2.77453125 11.9090625 -2.8515625 10.703125 C-2.90054688 9.81109375 -2.94953125 8.9190625 -3 8 C-3.99 7.67 -4.98 7.34 -6 7 C-6.1546875 8.0828125 -6.1546875 8.0828125 -6.3125 9.1875 C-7.06793947 12.27793421 -8.15531315 14.41743841 -10 17 C-10.66 17 -11.32 17 -12 17 C-12 18.65 -12 20.3 -12 22 C-11.34 22 -10.68 22 -10 22 C-7.875 27.625 -7.875 27.625 -9 31 C-10.98 30.67 -12.96 30.34 -15 30 C-15 31.32 -15 32.64 -15 34 C-16.98 34.495 -16.98 34.495 -19 35 C-18.505 35.45375 -18.01 35.9075 -17.5 36.375 C-16 38 -16 38 -16 40 C-17.32 40 -18.64 40 -20 40 C-23.11255824 33.77488351 -21.10346613 23.34488143 -19 17 C-9.19422537 -1.35209197 -9.19422537 -1.35209197 0 0 Z " fill="#D5D5D5" transform="translate(39,37)"/>
<path d="M0 0 C1.32 0.33 2.64 0.66 4 1 C4 1.99 4 2.98 4 4 C4.66 3.01 5.32 2.02 6 1 C7.32 1 8.64 1 10 1 C10.33 1.66 10.66 2.32 11 3 C11.33 2.01 11.66 1.02 12 0 C13.65 0 15.3 0 17 0 C16.67 1.32 16.34 2.64 16 4 C17.175625 3.9071875 17.175625 3.9071875 18.375 3.8125 C19.674375 3.9053125 19.674375 3.9053125 21 4 C21.66 4.99 22.32 5.98 23 7 C22.125 10.6875 22.125 10.6875 21 14 C19.68 14 18.36 14 17 14 C17 12.02 17 10.04 17 8 C16.67 8 16.34 8 16 8 C15.67 9.98 15.34 11.96 15 14 C11.37 14 7.74 14 4 14 C3.67 12.35 3.34 10.7 3 9 C2.67 10.65 2.34 12.3 2 14 C0.35 14 -1.3 14 -3 14 C-3.33 13.34 -3.66 12.68 -4 12 C-4.33 12.66 -4.66 13.32 -5 14 C-9.62 14 -14.24 14 -19 14 C-19.33 10.7 -19.66 7.4 -20 4 C-13.66666667 4 -7.33333333 4 -1 4 C-0.67 2.68 -0.34 1.36 0 0 Z M10 6 C9.34 7.65 8.68 9.3 8 11 C8.99 11.495 8.99 11.495 10 12 C10.33 10.02 10.66 8.04 11 6 C10.67 6 10.34 6 10 6 Z M-3 8 C-2 10 -2 10 -2 10 Z " fill="#EE9147" transform="translate(425,102)"/>
<path d="M0 0 C3.33333333 0 6.66666667 0 10 0 C11.94429145 -0.15936815 13.88856727 -0.31912094 15.83203125 -0.48828125 C19.43064984 0.32221843 20.8162346 2.09838784 23 5 C23.58160271 7.80552534 23.47801876 10.46303093 23.3125 13.3125 C23.28994141 14.05306641 23.26738281 14.79363281 23.24414062 15.55664062 C23.1855815 17.37197357 23.09590886 19.18625681 23 21 C20.03 21 17.06 21 14 21 C13.67 16.05 13.34 11.1 13 6 C11.02 6.99 11.02 6.99 9 8 C8.29327794 11.10930941 8.29327794 11.10930941 8.25 14.625 C8.19328125 15.81351563 8.1365625 17.00203125 8.078125 18.2265625 C8.05234375 19.14179687 8.0265625 20.05703125 8 21 C5.36 21 2.72 21 0 21 C0 14.07 0 7.14 0 0 Z " fill="#F6933E" transform="translate(483,74)"/>
<path d="M0 0 C3.25 2 3.25 2 5 5 C5.37873482 7.80678818 5.24198724 10.1445506 5 13 C0.37078475 14.0161692 -3.34462607 13.83796731 -8 13 C-8 13.66 -8 14.32 -8 15 C-4.04 15 -0.08 15 4 15 C4 16.98 4 18.96 4 21 C1.22858283 21.08089542 -1.54047819 21.14044062 -4.3125 21.1875 C-5.09818359 21.21263672 -5.88386719 21.23777344 -6.69335938 21.26367188 C-7.45068359 21.27333984 -8.20800781 21.28300781 -8.98828125 21.29296875 C-9.68477783 21.3086792 -10.38127441 21.32438965 -11.09887695 21.34057617 C-13.612462 20.89028066 -14.47204638 20.0142801 -16 18 C-16.43359375 14.78515625 -16.43359375 14.78515625 -16.4375 11.0625 C-16.45683594 9.83660156 -16.47617187 8.61070313 -16.49609375 7.34765625 C-16 4 -16 4 -14.34375 1.59375 C-9.96219728 -1.38570585 -5.07007156 -0.78160721 0 0 Z M-7 5 C-7.33 5.99 -7.66 6.98 -8 8 C-6.35 8 -4.7 8 -3 8 C-3.33 7.01 -3.66 6.02 -4 5 C-4.99 5 -5.98 5 -7 5 Z " fill="#F5923F" transform="translate(525,74)"/>
<path d="M0 0 C2.14849788 3.51985647 2.32505178 6.51271216 2.4921875 10.59375 C2.59080078 12.50994141 2.59080078 12.50994141 2.69140625 14.46484375 C2.78627729 16.48564608 2.87524499 18.50631962 2.95361328 20.52783203 C3.03324257 22.48804759 3.13741583 24.44721739 3.2421875 26.40625 C3.2922998 27.57478516 3.34241211 28.74332031 3.39404297 29.94726562 C4.10174504 33.51257858 5.22158881 34.74058685 8 37 C6.25 41.875 6.25 41.875 4 43 C2.00039988 43.039992 -0.00047242 43.04346799 -2 43 C-2 42.34 -2 41.68 -2 41 C-2.66 40.67 -3.32 40.34 -4 40 C-4 39.01 -4 38.02 -4 37 C-4.66 36.67 -5.32 36.34 -6 36 C-5.773125 35.13375 -5.54625 34.2675 -5.3125 33.375 C-4.69241042 29.95573002 -4.69241042 29.95573002 -6.5 27.0625 C-8.37101534 23.24251034 -7.8022634 21.09154334 -7 17 C-7.33 16.67 -7.66 16.34 -8 16 C-8.04080783 14.00041636 -8.04254356 11.99954746 -8 10 C-7.0409375 9.5978125 -7.0409375 9.5978125 -6.0625 9.1875 C-3.66868314 8.11332248 -3.66868314 8.11332248 -3 5 C-3.66 4.34 -4.32 3.68 -5 3 C-3.68 3 -2.36 3 -1 3 C-0.67 2.01 -0.34 1.02 0 0 Z " fill="#B0B0B0" transform="translate(61,73)"/>
<path d="M0 0 C0.66 0.33 1.32 0.66 2 1 C2 1.66 2 2.32 2 3 C3.98 3 5.96 3 8 3 C8 3.33 8 3.66 8 4 C6.02 4 4.04 4 2 4 C2 4.66 2 5.32 2 6 C1.01 6.33 0.02 6.66 -1 7 C-0.01 7.33 0.98 7.66 2 8 C2.99 9.485 2.99 9.485 4 11 C6.05003955 12.19232613 6.05003955 12.19232613 8 13 C7.67 13.99 7.34 14.98 7 16 C4.69 16 2.38 16 0 16 C0.8804896 18.24768247 0.8804896 18.24768247 3.5 19.3125 C6 21 6 21 7 23.375 C7 27.02740526 6.57270437 28.35378979 4 31 C0.67259718 31.73288454 -2.5992211 31.92981507 -6 32 C-6 32.99 -6 33.98 -6 35 C1.12950371 36.90120099 7.63740707 37.22424141 15 37 C15 37.99 15 38.98 15 40 C6.5657073 40.45636453 -0.85956596 39.17423358 -9 37 C-10.2778758 33.37359571 -9.70171711 30.9262406 -8.75 27.25 C-7.26884077 21.2642143 -6.07491208 15.27499435 -5.00292969 9.20605469 C-4.10171099 4.20342198 -4.10171099 4.20342198 -3 2 C-2.01 2 -1.02 2 0 2 C0 1.34 0 0.68 0 0 Z " fill="#268225" transform="translate(17,74)"/>
<path d="M0 0 C0.66 0 1.32 0 2 0 C2 0.99 2 1.98 2 3 C2.61488281 3 3.22976562 3 3.86328125 3 C7.2421875 3 10.62109375 3 14 3 C14 3.66 14 4.32 14 5 C12.35 5.33 10.7 5.66 9 6 C9.99 6.66 10.98 7.32 12 8 C11.3680971 13.07497019 10.35345863 17.88414519 9 22.8125 C8.82210937 23.47958984 8.64421875 24.14667969 8.4609375 24.83398438 C7.13911401 29.72177198 7.13911401 29.72177198 6 32 C5.7724985 33.87056791 5.59037189 35.74685958 5.4375 37.625 C5.35371094 38.62789062 5.26992188 39.63078125 5.18359375 40.6640625 C5.12300781 41.43492188 5.06242187 42.20578125 5 43 C-0.75 45 -0.75 45 -3 45 C-3 44.34 -3 43.68 -3 43 C-2.34 43 -1.68 43 -1 43 C-1 42.34 -1 41.68 -1 41 C-1.99 40.67 -2.98 40.34 -4 40 C-4 39.01 -4 38.02 -4 37 C-4.66 36.67 -5.32 36.34 -6 36 C-3.69 36.33 -1.38 36.66 1 37 C3.67915398 31.80913916 3.50443915 26.44598792 2.67578125 20.78515625 C2.45277344 20.19605469 2.22976562 19.60695313 2 19 C1.01 18.67 0.02 18.34 -1 18 C-1.4640625 16.824375 -1.4640625 16.824375 -1.9375 15.625 C-3.14208614 12.64896365 -4.33158609 11.68999547 -7 10 C-6.67 8.68 -6.34 7.36 -6 6 C-5.01 6.99 -4.02 7.98 -3 9 C-2.67 8.34 -2.34 7.68 -2 7 C-1.34 7 -0.68 7 0 7 C-0.33 5.68 -0.66 4.36 -1 3 C-0.34 3 0.32 3 1 3 C0.67 2.01 0.34 1.02 0 0 Z " fill="#AEADAD" transform="translate(41,24)"/>
<path d="M0 0 C1.65 0 3.3 0 5 0 C5 0.99 5 1.98 5 3 C7.31 3.66 9.62 4.32 12 5 C12.33 4.67 12.66 4.34 13 4 C18.8410596 3.62913907 18.8410596 3.62913907 21 4 C21.66 4.99 22.32 5.98 23 7 C21.59459459 12.40540541 21.59459459 12.40540541 20 14 C18.52245384 14.07228699 17.04166002 14.0837999 15.5625 14.0625 C14.75941406 14.05347656 13.95632813 14.04445313 13.12890625 14.03515625 C12.42636719 14.02355469 11.72382813 14.01195313 11 14 C10.34 14 9.68 14 9 14 C7.68 14 6.36 14 5 14 C5 12.02 5 10.04 5 8 C4.34 9.98 3.68 11.96 3 14 C1.35 14 -0.3 14 -2 14 C-2 12.02 -2 10.04 -2 8 C-3.32 8.33 -4.64 8.66 -6 9 C-6 8.34 -6 7.68 -6 7 C-6.66 7 -7.32 7 -8 7 C-8 8.32 -8 9.64 -8 11 C-6.35 11 -4.7 11 -3 11 C-3 11.99 -3 12.98 -3 14 C-4.47906892 14.02689216 -5.95827483 14.04634621 -7.4375 14.0625 C-8.67306641 14.07990234 -8.67306641 14.07990234 -9.93359375 14.09765625 C-12 14 -12 14 -13 13 C-12.4 6.4 -12.4 6.4 -10 4 C-3.67741935 3.66129032 -3.67741935 3.66129032 -1 5 C-0.67 3.35 -0.34 1.7 0 0 Z M16 7 C15.67 8.65 15.34 10.3 15 12 C15.66 12 16.32 12 17 12 C17.33 10.35 17.66 8.7 18 7 C17.34 7 16.68 7 16 7 Z M10 8 C11 11 11 11 11 11 Z " fill="#EF3935" transform="translate(465,102)"/>
<path d="M0 0 C2.31 0 4.62 0 7 0 C7 1.65 7 3.3 7 5 C7.99 5.33 8.98 5.66 10 6 C9.67 7.65 9.34 9.3 9 11 C8.34 11 7.68 11 7 11 C7 14.3 7 17.6 7 21 C8.32 21 9.64 21 11 21 C11 22.65 11 24.3 11 26 C9.39667209 26.08121924 7.79215974 26.13929134 6.1875 26.1875 C4.84751953 26.23970703 4.84751953 26.23970703 3.48046875 26.29296875 C1 26 1 26 -0.62304688 24.74609375 C-2.30399754 22.61450525 -2.41634592 21.45904514 -2.51171875 18.76953125 C-2.54716797 17.96708984 -2.58261719 17.16464844 -2.61914062 16.33789062 C-2.64169922 15.50451172 -2.66425781 14.67113281 -2.6875 13.8125 C-2.72166016 12.96751953 -2.75582031 12.12253906 -2.79101562 11.25195312 C-2.87341471 9.16843351 -2.93838645 7.08423784 -3 5 C-2.34 5 -1.68 5 -1 5 C-0.67 3.35 -0.34 1.7 0 0 Z " fill="#E8944C" transform="translate(535,69)"/>
<path d="M0 0 C0.66 0 1.32 0 2 0 C2.12117188 0.67546875 2.24234375 1.3509375 2.3671875 2.046875 C2.53476562 2.93890625 2.70234375 3.8309375 2.875 4.75 C3.11863281 6.07257812 3.11863281 6.07257812 3.3671875 7.421875 C3.96796264 9.86947744 4.77997117 11.80599857 6 14 C4.68 14.33 3.36 14.66 2 15 C3.32 15 4.64 15 6 15 C7.32 15 8.64 15 10 15 C10 15.99 10 16.98 10 18 C9.01 18.33 8.02 18.66 7 19 C8.65 19.66 10.3 20.32 12 21 C12 21.66 12 22.32 12 23 C11.34 23 10.68 23 10 23 C10 23.99 10 24.98 10 26 C6.16638852 27.91680574 1.71902814 27.50114041 -2.3046875 26.328125 C-4.22362436 25.60425558 -6.11489973 24.80790011 -8 24 C-7.67 22.68 -7.34 21.36 -7 20 C-6.34 20 -5.68 20 -5 20 C-5.02320313 19.40832031 -5.04640625 18.81664063 -5.0703125 18.20703125 C-5.17411464 13.66198041 -5.13708357 10.14059941 -3 6 C-2.34 6 -1.68 6 -1 6 C-1.020625 5.195625 -1.04125 4.39125 -1.0625 3.5625 C-1 1 -1 1 0 0 Z " fill="#1E84CE" transform="translate(56,34)"/>
<path d="M0 0 C1.32 0 2.64 0 4 0 C4 1.98 4 3.96 4 6 C4.66 5.34 5.32 4.68 6 4 C8.68839385 3.73008094 11.29141936 3.91262643 14 4 C14 4.66 14 5.32 14 6 C14.99 5.34 15.98 4.68 17 4 C19.72283905 3.68745622 22.24442486 3.86666572 25 4 C26 5 26 5 26.125 7.3125 C26.01301026 9.72027935 25.62109644 11.68814102 25 14 C15.66666667 14 6.33333333 14 -3 14 C-2.69249629 11.85344499 -2.3788634 9.70776715 -2.0625 7.5625 C-1.88847656 6.36753906 -1.71445312 5.17257813 -1.53515625 3.94140625 C-1 1 -1 1 0 0 Z M8 7 C8 8.32 8 9.64 8 11 C10.31 11 12.62 11 15 11 C15 10.01 15 9.02 15 8 C12.69 7.67 10.38 7.34 8 7 Z " fill="#F23535" transform="translate(490,102)"/>
<path d="M0 0 C2.31 0.66 4.62 1.32 7 2 C7 2.99 7 3.98 7 5 C6.01 5.495 6.01 5.495 5 6 C5.61022291 11.79012933 5.61022291 11.79012933 8 17 C8.66 17.33 9.32 17.66 10 18 C9.01 18.33 8.02 18.66 7 19 C7.66 20.65 8.32 22.3 9 24 C8.34 24 7.68 24 7 24 C6.67 24.66 6.34 25.32 6 26 C-4.74811083 15.56801008 -4.74811083 15.56801008 -7 9 C-7.66 8.34 -8.32 7.68 -9 7 C-8.625 4.375 -8.625 4.375 -8 2 C-6.0085944 1.61866701 -4.00720923 1.28674418 -2 1 C-1.67 1.33 -1.34 1.66 -1 2 C-0.67 1.34 -0.34 0.68 0 0 Z " fill="#0F7F09" transform="translate(452,68)"/>
<path d="M0 0 C7.14231712 0.57138537 11.34388433 3.04563214 16.1875 8.1875 C20.17705783 13.07758795 21.70994688 18.29283755 22.375 24.5 C21.63924536 31.36704335 19.4839699 37.66771147 15 43 C12.43358239 44.8620074 9.7785874 46.47582342 7 48 C6.505 46.515 6.505 46.515 6 45 C6.886875 44.62875 7.77375 44.2575 8.6875 43.875 C14.20255714 40.75326954 16.81914237 37.17308961 18.875 31.3125 C20.39143182 25.74660218 19.89006763 20.64066955 19 15 C18.05125 15.165 17.1025 15.33 16.125 15.5 C13 16 13 16 11 16 C10.23044294 19.07822825 9.97297866 21.84884882 10.0625 25 C10.12087828 28.42485891 9.55269069 30.89461863 8 34 C7.34 33.67 6.68 33.34 6 33 C6.5259375 31.7934375 6.5259375 31.7934375 7.0625 30.5625 C8.23819356 26.09486448 8.15990784 22.46687914 7 18 C5.17879704 15.18007283 3.99309044 13.49654522 1 12 C-0.70702735 11.93003986 -2.41668003 11.91559846 -4.125 11.9375 C-5.03507812 11.94652344 -5.94515625 11.95554687 -6.8828125 11.96484375 C-7.93082031 11.98224609 -7.93082031 11.98224609 -9 12 C-6.31907309 9.31907309 -4.60832637 9.61329743 -0.875 9.375 C0.22070312 9.30023438 1.31640625 9.22546875 2.4453125 9.1484375 C3.28835938 9.09945312 4.13140625 9.05046875 5 9 C5.33 9.99 5.66 10.98 6 12 C8.01508358 12.73323796 8.01508358 12.73323796 10 13 C9.814375 12.071875 9.62875 11.14375 9.4375 10.1875 C9 7 9 7 10 4 C9.36191406 3.87882812 8.72382813 3.75765625 8.06640625 3.6328125 C7.24011719 3.46523438 6.41382813 3.29765625 5.5625 3.125 C4.73878906 2.96257813 3.91507812 2.80015625 3.06640625 2.6328125 C2.38449219 2.42398438 1.70257813 2.21515625 1 2 C0.67 1.34 0.34 0.68 0 0 Z " fill="#1E791A" transform="translate(284,47)"/>
<path d="M0 0 C1.32 0 2.64 0 4 0 C4 1.32 4 2.64 4 4 C4.763125 4 5.52625 4 6.3125 4 C10.875 4 15.4375 4 20 4 C21.125 5.6875 21.125 5.6875 22 8 C20.7 12.3 20.7 12.3 19 14 C16.32461486 14.04246643 13.67290614 14.04919459 11 14 C10.34 14 9.68 14 9 14 C7.33333333 14 5.66666667 14 4 14 C4 12.02 4 10.04 4 8 C3.34 9.98 2.68 11.96 2 14 C0.35 14 -1.3 14 -3 14 C-2.69249629 11.85344499 -2.3788634 9.70776715 -2.0625 7.5625 C-1.88847656 6.36753906 -1.71445312 5.17257813 -1.53515625 3.94140625 C-1 1 -1 1 0 0 Z M15 7 C14.67 8.32 14.34 9.64 14 11 C14.99 11.495 14.99 11.495 16 12 C16.33 10.35 16.66 8.7 17 7 C16.34 7 15.68 7 15 7 Z " fill="#E93938" transform="translate(366,102)"/>
<path d="M0 0 C2.47923801 -0.02685095 4.9581884 -0.04676547 7.4375 -0.0625 C8.14455078 -0.07087891 8.85160156 -0.07925781 9.58007812 -0.08789062 C11.38693559 -0.09653588 13.19387603 -0.05220011 15 0 C16 1 16 1 16.1328125 3.03125 C16.13023437 3.8459375 16.12765625 4.660625 16.125 5.5 C16.12886719 6.72203125 16.12886719 6.72203125 16.1328125 7.96875 C16 10 16 10 15 11 C12.46950598 11.07313567 9.96695163 11.09247527 7.4375 11.0625 C6.37112305 11.05573242 6.37112305 11.05573242 5.28320312 11.04882812 C3.52209987 11.03700864 1.76103964 11.01907263 0 11 C0 13.64 0 16.28 0 19 C5.28 19 10.56 19 16 19 C16 22.3 16 25.6 16 29 C15.67 29 15.34 29 15 29 C15 26.03 15 23.06 15 20 C13.24967156 20.14183696 11.49974466 20.28863429 9.75 20.4375 C8.28820312 20.55931641 8.28820312 20.55931641 6.796875 20.68359375 C4.06094908 20.92633237 4.06094908 20.92633237 1.703125 21.59765625 C0.86007812 21.79681641 0.86007812 21.79681641 0 22 C-1 21 -1 21 -1.09765625 18.27734375 C-1.08605469 17.17519531 -1.07445312 16.07304688 -1.0625 14.9375 C-1.05347656 13.83277344 -1.04445313 12.72804688 -1.03515625 11.58984375 C-1.02355469 10.73519531 -1.01195312 9.88054687 -1 9 C-0.01 8.67 0.98 8.34 2 8 C1.34 7.34 0.68 6.68 0 6 C0 4 0 2 0 0 Z " fill="#177B12" transform="translate(410,66)"/>
<path d="M0 0 C0.28875 0.804375 0.5775 1.60875 0.875 2.4375 C1.73262568 5.1326468 1.73262568 5.1326468 4 6 C4.33 4.68 4.66 3.36 5 2 C7.40707965 18.54867257 7.40707965 18.54867257 4 24 C1.875 24.8125 1.875 24.8125 0 25 C-2.15059309 21.46813168 -2.3797728 18.33712007 -2.625 14.25 C-2.73714844 12.49429688 -2.73714844 12.49429688 -2.8515625 10.703125 C-2.90054688 9.81109375 -2.94953125 8.9190625 -3 8 C-3.99 7.67 -4.98 7.34 -6 7 C-6.103125 7.721875 -6.20625 8.44375 -6.3125 9.1875 C-7.06793947 12.27793421 -8.15531315 14.41743841 -10 17 C-10.66 17 -11.32 17 -12 17 C-12 18.65 -12 20.3 -12 22 C-12.33 22 -12.66 22 -13 22 C-13.60488416 15.95115842 -13.60488416 15.95115842 -11.921875 13.3046875 C-10.64416007 11.84339283 -9.32330956 10.42013709 -8 9 C-7.67 8.01 -7.34 7.02 -7 6 C-6.34 6 -5.68 6 -5 6 C-5.66 4.35 -6.32 2.7 -7 1 C-4.53721199 -0.231394 -2.7204945 -0.07159196 0 0 Z " fill="#C8C5C7" transform="translate(39,37)"/>
<path d="M0 0 C1.65 0.33 3.3 0.66 5 1 C6.32 11.23 7.64 21.46 9 32 C7.68 32 6.36 32 5 32 C5 31.34 5 30.68 5 30 C3.02 30.99 3.02 30.99 1 32 C1 28.7 1 25.4 1 22 C0.34 22 -0.32 22 -1 22 C-1.02895225 18.70835171 -1.0467823 15.41673601 -1.0625 12.125 C-1.07506836 10.71927734 -1.07506836 10.71927734 -1.08789062 9.28515625 C-1.09111328 8.38925781 -1.09433594 7.49335937 -1.09765625 6.5703125 C-1.10289307 5.74289551 -1.10812988 4.91547852 -1.11352539 4.06298828 C-1 2 -1 2 0 0 Z " fill="#A96D16" transform="translate(34,76)"/>
<path d="M0 0 C4.95 0 9.9 0 15 0 C15 3.63 15 7.26 15 11 C10.05 11 5.1 11 0 11 C0 13.64 0 16.28 0 19 C5.28 19 10.56 19 16 19 C16 22.3 16 25.6 16 29 C15.67 29 15.34 29 15 29 C15 26.03 15 23.06 15 20 C9.39 20 3.78 20 -2 20 C-2 10.1 -2 10.1 -1 6 C-0.34 5.67 0.32 5.34 1 5 C2.0194119 4.01979625 3.02246356 3.02196992 4 2 C2.68 1.34 1.36 0.68 0 0 Z " fill="#EB3839" transform="translate(130,66)"/>
<path d="M0 0 C2.7515003 2.00109113 3.34677418 3.92999995 4.0625 7.125 C4.371875 8.40375 4.68125 9.6825 5 11 C5.66 11.33 6.32 11.66 7 12 C7.66796875 13.77734375 7.66796875 13.77734375 8.1875 15.9375 C8.45626953 17.00291016 8.45626953 17.00291016 8.73046875 18.08984375 C9 20 9 20 8 22 C7.67 22.33 7.34 22.66 7 23 C8.65 23.33 10.3 23.66 12 24 C11 26 11 26 9.1875 26.875 C8.465625 26.91625 7.74375 26.9575 7 27 C5.0625 25.25 5.0625 25.25 3 23 C2.113125 22.525625 1.22625 22.05125 0.3125 21.5625 C-2 20 -2 20 -2.875 17.625 C-3.00520858 14.89061985 -2.67997135 12.64433302 -2 10 C-2.66 9.67 -3.32 9.34 -4 9 C-4.25 6.1875 -4.25 6.1875 -4 3 C-2 1.125 -2 1.125 0 0 Z " fill="#0F8009" transform="translate(265,67)"/>
<path d="M0 0 C1.32 0 2.64 0 4 0 C4.19335938 0.92683594 4.38671875 1.85367188 4.5859375 2.80859375 C4.84632812 4.00613281 5.10671875 5.20367187 5.375 6.4375 C5.63023438 7.63246094 5.88546875 8.82742187 6.1484375 10.05859375 C6.42945313 11.02925781 6.71046875 11.99992187 7 13 C7.66 13.33 8.32 13.66 9 14 C9 14.99 9 15.98 9 17 C9.66 17.33 10.32 17.66 11 18 C10.773125 19.216875 10.54625 20.43375 10.3125 21.6875 C9.76570518 25.83585001 10.77044074 27.46986451 13 31 C12.625 34.0625 12.625 34.0625 12 37 C12.12563582 39.26424351 12.12563582 39.26424351 13 41 C13.99 41.33 14.98 41.66 16 42 C15.505 42.495 15.505 42.495 15 43 C8.4 42.4 8.4 42.4 6 40 C5.91015625 37.91796875 5.91015625 37.91796875 6.0625 35.1875 C6.26004682 25.69363214 4.48198471 16.34911633 3 7 C2.34 7.66 1.68 8.32 1 9 C0.29925156 5.846632 0 3.27275026 0 0 Z " fill="#929393" transform="translate(44,72)"/>
<path d="M0 0 C1.8125 0.125 1.8125 0.125 4 1 C5.03755118 2.98077953 6.02995879 4.98529902 7 7 C9.73854634 10.57826635 12.79264219 13.84037073 16 17 C16.93423645 13.98968256 17.04449911 13.13349732 16 10 C16.66 9.67 17.32 9.34 18 9 C16.68 7.02 15.36 5.04 14 3 C14.33 2.34 14.66 1.68 15 1 C16.77538699 3.05872549 18.54534184 5.12172999 20.3125 7.1875 C21.06176758 8.0547168 21.06176758 8.0547168 21.82617188 8.93945312 C24.56225197 12.14664635 26.95313836 15.29049989 29 19 C16.61978779 20.78275056 16.61978779 20.78275056 12.34033203 17.87060547 C8.99927601 14.65414232 6.47900862 10.89856724 4 7 C3.34 6.01 2.68 5.02 2 4 C1.67 8.95 1.34 13.9 1 19 C-1.55046283 13.89907435 -2.29370486 10.67829396 -2 5 C-1 2.0625 -1 2.0625 0 0 Z " fill="#1F7917" transform="translate(442,76)"/>
<path d="M0 0 C3.96 0 7.92 0 12 0 C12 15.51 12 31.02 12 47 C10 45 10 45 9.79745483 43.08908081 C9.83076401 41.92325974 9.83076401 41.92325974 9.86474609 40.73388672 C9.88491791 39.85312469 9.90508972 38.97236267 9.9258728 38.06491089 C9.95806915 37.11278717 9.9902655 36.16066345 10.0234375 35.1796875 C10.04846344 34.20589142 10.07348938 33.23209534 10.09927368 32.22879028 C10.18161731 29.11051356 10.27815131 25.99285671 10.375 22.875 C10.43322487 20.76434845 10.49052845 18.65367128 10.546875 16.54296875 C10.68721757 11.36162097 10.84029015 6.18078552 11 1 C8.03 1 5.06 1 2 1 C2 10.24 2 19.48 2 29 C0.68 29 -0.64 29 -2 29 C-2.2475 28.29875 -2.495 27.5975 -2.75 26.875 C-3.96475048 23.84921039 -3.96475048 23.84921039 -6.125 20.8125 C-8 18 -8 18 -8 16 C-8.99 15.67 -9.98 15.34 -11 15 C-12.25 12.625 -12.25 12.625 -13 10 C-12.67 9.01 -12.34 8.02 -12 7 C-11.55346069 7.71917603 -11.55346069 7.71917603 -11.09790039 8.45288086 C-9.75416593 10.61529361 -8.40836126 12.77641037 -7.0625 14.9375 C-6.59392578 15.69224609 -6.12535156 16.44699219 -5.64257812 17.22460938 C-5.19462891 17.94326172 -4.74667969 18.66191406 -4.28515625 19.40234375 C-3.87144775 20.06741943 -3.45773926 20.73249512 -3.03149414 21.41772461 C-2.09387816 22.97485342 -2.09387816 22.97485342 -1 24 C-0.67 16.08 -0.34 8.16 0 0 Z " fill="#2C7627" transform="translate(380,48)"/>
<path d="M0 0 C0.90105469 0.02707031 1.80210937 0.05414063 2.73046875 0.08203125 C3.76107422 0.13423828 3.76107422 0.13423828 4.8125 0.1875 C4.6475 0.80625 4.4825 1.425 4.3125 2.0625 C3.71921989 4.58394049 3.8288706 6.5803945 3.9375 9.1875 C3.8125 12.1875 3.8125 12.1875 1.8125 14.1875 C-0.7890625 14.3828125 -0.7890625 14.3828125 -3.8125 14.3125 C-5.31683594 14.28542969 -5.31683594 14.28542969 -6.8515625 14.2578125 C-7.62242187 14.23460938 -8.39328125 14.21140625 -9.1875 14.1875 C-9.1875 13.1975 -9.1875 12.2075 -9.1875 11.1875 C-6.5475 10.8575 -3.9075 10.5275 -1.1875 10.1875 C-4.1575 9.6925 -4.1575 9.6925 -7.1875 9.1875 C-7.875 6.375 -7.875 6.375 -8.1875 3.1875 C-5.91248079 -0.13279831 -3.85623477 -0.15024291 0 0 Z " fill="#EE453C" transform="translate(359.1875,101.8125)"/>
<path d="M0 0 C0.0272616 2.04159095 0.04651345 4.08328963 0.0625 6.125 C0.07410156 7.26195313 0.08570313 8.39890625 0.09765625 9.5703125 C0.005327 12.8129156 -0.38610094 15.81932612 -1 19 C-0.34 19 0.32 19 1 19 C1 22.96 1 26.92 1 31 C-0.65 31.66 -2.3 32.32 -4 33 C-4.33 27.72 -4.66 22.44 -5 17 C-4.34 17 -3.68 17 -3 17 C-3.33 11.72 -3.66 6.44 -4 1 C-7.63 0.67 -11.26 0.34 -15 0 C-15 -0.33 -15 -0.66 -15 -1 C-13.62773731 -1.22566098 -12.25189728 -1.42959874 -10.875 -1.625 C-10.10929687 -1.74101563 -9.34359375 -1.85703125 -8.5546875 -1.9765625 C-5.3832468 -2.00565829 -2.9463648 -1.11876461 0 0 Z " fill="#296507" transform="translate(34,79)"/>
<path d="M0 0 C2.97 0.495 2.97 0.495 6 1 C6.91525881 6.03392345 7.52238079 9.75934562 5.5 14.5625 C2.33863681 17.64482911 0.36643616 18 -4 18 C-4.66 17.34 -5.32 16.68 -6 16 C-4.68 16 -3.36 16 -2 16 C-2.33 15.34 -2.66 14.68 -3 14 C-3.1328125 12.125 -3.1328125 12.125 -3.125 10 C-3.12757812 9.29875 -3.13015625 8.5975 -3.1328125 7.875 C-3 6 -3 6 -2 4 C-1.34 4 -0.68 4 0 4 C0 2.68 0 1.36 0 0 Z " fill="#A8B7C0" transform="translate(71,52)"/>
<path d="M0 0 C0 5.61 0 11.22 0 17 C-0.66 17 -1.32 17 -2 17 C-1.67 17.66 -1.34 18.32 -1 19 C-0.92883618 21.37402501 -0.91590915 23.75000677 -0.9375 26.125 C-0.94652344 27.40632813 -0.95554687 28.68765625 -0.96484375 30.0078125 C-0.97644531 30.99523437 -0.98804688 31.98265625 -1 33 C-1.66 32.01 -2.32 31.02 -3 30 C-5.05925139 29.27617533 -5.05925139 29.27617533 -7 29 C-6.24594879 22.84550583 -5.43687801 16.70108204 -4.5625 10.5625 C-4.44068359 9.65306641 -4.31886719 8.74363281 -4.19335938 7.80664062 C-4.06896484 6.94361328 -3.94457031 6.08058594 -3.81640625 5.19140625 C-3.70756104 4.40967041 -3.59871582 3.62793457 -3.48657227 2.82250977 C-3.32600342 2.22108154 -3.16543457 1.61965332 -3 1 C-1 0 -1 0 0 0 Z " fill="#0D7205" transform="translate(31,79)"/>
<path d="M0 0 C1.32 0.33 2.64 0.66 4 1 C4.19504458 3.10348074 4.38078496 5.20782585 4.5625 7.3125 C4.66691406 8.48425781 4.77132812 9.65601563 4.87890625 10.86328125 C5 14 5 14 4 17 C4.33 17.99 4.66 18.98 5 20 C5.66 20.33 6.32 20.66 7 21 C7 21.66 7 22.32 7 23 C5.02 23.99 5.02 23.99 3 25 C1.9375 23.1875 1.9375 23.1875 1 21 C1.33 20.01 1.66 19.02 2 18 C1.34 17.67 0.68 17.34 0 17 C0 15.02 0 13.04 0 11 C-0.6496875 11.99 -0.6496875 11.99 -1.3125 13 C-1.869375 13.66 -2.42625 14.32 -3 15 C-3.99 15 -4.98 15 -6 15 C-6 13.35 -6 11.7 -6 10 C-5.34 9.67 -4.68 9.34 -4 9 C-2.87293294 6.88984046 -2.87293294 6.88984046 -1.875 4.4375 C-1.34519531 3.19806641 -1.34519531 3.19806641 -0.8046875 1.93359375 C-0.53914063 1.29550781 -0.27359375 0.65742187 0 0 Z " fill="#A7A6A6" transform="translate(33,44)"/>
<path d="M0 0 C1.64574566 -0.02688151 3.29161413 -0.04634123 4.9375 -0.0625 C5.85402344 -0.07410156 6.77054687 -0.08570312 7.71484375 -0.09765625 C10 0 10 0 11 1 C11.26293056 5.03160191 11.29404844 6.55892734 9 10 C5.875 10.1875 5.875 10.1875 3 10 C2.67 11.32 2.34 12.64 2 14 C0.68 14 -0.64 14 -2 14 C-1.85795259 12.41632253 -1.71119847 10.83306682 -1.5625 9.25 C-1.48128906 8.36828125 -1.40007812 7.4865625 -1.31640625 6.578125 C-1.03761535 4.30649548 -0.61209423 2.20148177 0 0 Z M5 3 C4.67 4.32 4.34 5.64 4 7 C4.99 7.495 4.99 7.495 6 8 C6 6.35 6 4.7 6 3 C5.67 3 5.34 3 5 3 Z " fill="#EB3D3C" transform="translate(389,106)"/>
<path d="M0 0 C1.32 0.33 2.64 0.66 4 1 C4 2.32 4 3.64 4 5 C3.01 5 2.02 5 1 5 C1.33 8.63 1.66 12.26 2 16 C2.99 16.33 3.98 16.66 5 17 C5 17.99 5 18.98 5 20 C2.29120665 21.35439668 -0.00933268 21.06501451 -3 21 C-5.82133591 16.23899564 -5.2063498 12.22751582 -4 7 C-3.87625 6.2575 -3.7525 5.515 -3.625 4.75 C-3.41875 4.1725 -3.2125 3.595 -3 3 C-2.01 2.67 -1.02 2.34 0 2 C0 1.34 0 0.68 0 0 Z " fill="#F8923E" transform="translate(539,74)"/>
<path d="M0 0 C6.75 1.125 6.75 1.125 10 3 C9.01 3 8.02 3 7 3 C7 3.66 7 4.32 7 5 C6.34 5 5.68 5 5 5 C5.66 9.95 6.32 14.9 7 20 C4.69 20 2.38 20 0 20 C0 13.4 0 6.8 0 0 Z " fill="#F9943D" transform="translate(483,75)"/>
<path d="M0 0 C9.24 0 18.48 0 28 0 C28 3.3 28 6.6 28 10 C22.72 10 17.44 10 12 10 C12 12.64 12 15.28 12 18 C10.14935681 14.87703962 9.70643846 12.62059232 10 9 C10.33 8.67 10.66 8.34 11 8 C13.70108504 8.090916 16.36930311 8.23740766 19.0625 8.4375 C19.82111328 8.48970703 20.57972656 8.54191406 21.36132812 8.59570312 C23.24121722 8.72575835 25.12065685 8.86228038 27 9 C27 6.36 27 3.72 27 1 C18.42 1 9.84 1 1 1 C1 16.18 1 31.36 1 47 C0.67 47 0.34 47 0 47 C0 31.49 0 15.98 0 0 Z " fill="#257021" transform="translate(398,48)"/>
<path d="M0 0 C-0.33 0.99 -0.66 1.98 -1 3 C-2.65 3 -4.3 3 -6 3 C-5.1195104 5.24768247 -5.1195104 5.24768247 -2.5 6.3125 C0 8 0 8 1 10.5 C1 13 1 13 0 14.8125 C-2.97492555 16.57886204 -5.61800486 16.19143369 -9 16 C-9 14.68 -9 13.36 -9 12 C-7.35 12 -5.7 12 -4 12 C-4.804375 11.360625 -5.60875 10.72125 -6.4375 10.0625 C-9 8 -9 8 -10 7 C-10.29044498 4.2407727 -10.3190465 2.56302324 -8.9375 0.125 C-5.88430685 -1.64782183 -3.33588292 -0.69235306 0 0 Z " fill="#D5F4D5" transform="translate(23,87)"/>
<path d="M0 0 C-0.63480207 5.0456948 -1.62175039 9.8967812 -2.9375 14.8125 C-3.10701172 15.47958984 -3.27652344 16.14667969 -3.45117188 16.83398438 C-4.75793055 21.75793055 -4.75793055 21.75793055 -7 24 C-7.84800767 16.307359 -8.12152487 8.73708326 -8 1 C-5.29120665 -0.35439668 -2.99066732 -0.06501451 0 0 Z " fill="#901846" transform="translate(53,32)"/>
<path d="M0 0 C1.65 0 3.3 0 5 0 C4.67 0.99 4.34 1.98 4 3 C4 2.34 4 1.68 4 1 C3.01 1 2.02 1 1 1 C1.33 2.65 1.66 4.3 2 6 C1.34 6 0.68 6 0 6 C0.66 8.31 1.32 10.62 2 13 C2.33 12.34 2.66 11.68 3 11 C3 11.99 3 12.98 3 14 C1.35 14 -0.3 14 -2 14 C-2 12.02 -2 10.04 -2 8 C-3.32 8.33 -4.64 8.66 -6 9 C-6 8.34 -6 7.68 -6 7 C-6.66 7 -7.32 7 -8 7 C-8 8.32 -8 9.64 -8 11 C-6.35 11 -4.7 11 -3 11 C-3 11.99 -3 12.98 -3 14 C-4.47906892 14.02689216 -5.95827483 14.04634621 -7.4375 14.0625 C-8.67306641 14.07990234 -8.67306641 14.07990234 -9.93359375 14.09765625 C-12 14 -12 14 -13 13 C-12.4 6.4 -12.4 6.4 -10 4 C-3.67741935 3.66129032 -3.67741935 3.66129032 -1 5 C-0.67 3.35 -0.34 1.7 0 0 Z " fill="#E0443D" transform="translate(465,102)"/>
<path d="M0 0 C0.66 0 1.32 0 2 0 C2.96070434 2.88211302 3.10581883 4.69850044 3.0625 7.6875 C3.05347656 8.49574219 3.04445313 9.30398437 3.03515625 10.13671875 C3.02355469 10.75160156 3.01195312 11.36648437 3 12 C-0.67609777 12.94528228 -3.38815751 13.29655884 -7 12 C-9.3125 9.4375 -9.3125 9.4375 -11 7 C-9.35 6.67 -7.7 6.34 -6 6 C-6 4.68 -6 3.36 -6 2 C-3.03 2.495 -3.03 2.495 0 3 C0 2.01 0 1.02 0 0 Z " fill="#ABABA9" transform="translate(30,65)"/>
<path d="M0 0 C0.66 0 1.32 0 2 0 C2 0.99 2 1.98 2 3 C2.61488281 3 3.22976562 3 3.86328125 3 C7.2421875 3 10.62109375 3 14 3 C14 3.66 14 4.32 14 5 C12.35 5.33 10.7 5.66 9 6 C9.66 6.66 10.32 7.32 11 8 C8.69 8.33 6.38 8.66 4 9 C4 10.32 4 11.64 4 13 C2.54077307 12.88590407 1.08259402 12.75834456 -0.375 12.625 C-1.18710937 12.55539063 -1.99921875 12.48578125 -2.8359375 12.4140625 C-5 12 -5 12 -7 10 C-6.625 7.875 -6.625 7.875 -6 6 C-5.01 6.99 -4.02 7.98 -3 9 C-2.67 8.34 -2.34 7.68 -2 7 C-1.34 7 -0.68 7 0 7 C-0.33 5.68 -0.66 4.36 -1 3 C-0.34 3 0.32 3 1 3 C0.67 2.01 0.34 1.02 0 0 Z " fill="#A59B9D" transform="translate(41,24)"/>
<path d="M0 0 C2.53292022 2.53292022 2.28706132 4.20514494 2.32226562 7.66796875 C2.31904297 8.39628906 2.31582031 9.12460938 2.3125 9.875 C2.32861328 10.59558594 2.34472656 11.31617187 2.36132812 12.05859375 C2.36423594 15.21648275 2.16430727 17.65312911 0.8046875 20.5234375 C-1 22 -1 22 -3.48046875 22.171875 C-4.37378906 22.03265625 -5.26710938 21.8934375 -6.1875 21.75 C-7.08855469 21.62109375 -7.98960938 21.4921875 -8.91796875 21.359375 C-9.60503906 21.24078125 -10.29210937 21.1221875 -11 21 C-10.67 19.35 -10.34 17.7 -10 16 C-9.01 16 -8.02 16 -7 16 C-6.34 14.68 -5.68 13.36 -5 12 C-4.34 12 -3.68 12 -3 12 C-3 12.66 -3 13.32 -3 14 C-1.68 14 -0.36 14 1 14 C0.649375 12.80375 0.29875 11.6075 -0.0625 10.375 C-1.01712172 6.62326988 -0.94983153 3.7993261 0 0 Z " fill="#B08E57" transform="translate(42,94)"/>
<path d="M0 0 C1.19882812 0.15275391 1.19882812 0.15275391 2.421875 0.30859375 C3.02515625 0.39238281 3.6284375 0.47617187 4.25 0.5625 C4.58 1.8825 4.91 3.2025 5.25 4.5625 C4.30125 4.52125 3.3525 4.48 2.375 4.4375 C-0.85244856 4.21276182 -0.85244856 4.21276182 -2.75 6.5625 C-3.08 5.2425 -3.41 3.9225 -3.75 2.5625 C-4.74 3.0575 -4.74 3.0575 -5.75 3.5625 C-6.40555119 6.08983235 -6.40555119 6.08983235 -6.75 8.5625 C-7.41 8.5625 -8.07 8.5625 -8.75 8.5625 C-9.7948758 13.18980711 -10.26756279 17.85103878 -10.75 22.5625 C-11.41 22.5625 -12.07 22.5625 -12.75 22.5625 C-13.08 24.2125 -13.41 25.8625 -13.75 27.5625 C-14.41 27.5625 -15.07 27.5625 -15.75 27.5625 C-14.41001384 21.30714405 -12.86748273 15.15440847 -11.125 9 C-10.89554688 8.18208984 -10.66609375 7.36417969 -10.4296875 6.52148438 C-9.8719512 4.5345488 -9.31128904 2.54843489 -8.75 0.5625 C-5.58662624 -0.30421772 -3.2655756 -0.43220854 0 0 Z " fill="#217CC3" transform="translate(61.75,31.4375)"/>
<path d="M0 0 C3.96 0 7.92 0 12 0 C12 0.33 12 0.66 12 1 C9.03 1 6.06 1 3 1 C2.85425697 5.14010989 2.71204413 9.28032347 2.57275391 13.4206543 C2.52516246 14.82172721 2.47669541 16.22277072 2.42724609 17.6237793 C2.08224808 27.42101882 1.93625331 37.19629043 2 47 C1.34 47 0.68 47 0 47 C0 31.49 0 15.98 0 0 Z " fill="#21761D" transform="translate(351,48)"/>
<path d="M0 0 C2.05078125 0.03255208 4.1015625 0.06510417 6.15234375 0.09765625 C5.57373255 3.45360122 4.51233514 4.73766486 2.15234375 7.09765625 C2.15234375 8.08765625 2.15234375 9.07765625 2.15234375 10.09765625 C2.15234375 10.75765625 2.15234375 11.41765625 2.15234375 12.09765625 C-0.22265625 12.72265625 -0.22265625 12.72265625 -2.84765625 13.09765625 C-5.06201731 10.88329519 -5.59164213 10.16982569 -5.84765625 7.09765625 C-2.8509227 0.15068302 -2.8509227 0.15068302 0 0 Z M-3.84765625 13.09765625 C-3.51765625 14.08765625 -3.18765625 15.07765625 -2.84765625 16.09765625 C-3.83765625 16.59265625 -3.83765625 16.59265625 -4.84765625 17.09765625 C-4.51765625 15.77765625 -4.18765625 14.45765625 -3.84765625 13.09765625 Z " fill="#9C9C9D" transform="translate(55.84765625,69.90234375)"/>
<path d="M0 0 C2.8515625 1.375 2.8515625 1.375 5.625 3 C8.74903676 4.82016707 11.4298689 6.32955285 15 7 C15 7.66 15 8.32 15 9 C8.18759646 10.58145082 8.18759646 10.58145082 4.93359375 8.98828125 C3.60083835 8.07804322 2.27780123 7.15341335 0.96484375 6.21484375 C-2.00279766 4.37997998 -4.55445196 4.21534675 -8 4 C-8 2.68 -8 1.36 -8 0 C-5.05122475 -1.47438763 -3.17273845 -0.73748884 0 0 Z " fill="#213856" transform="translate(54,59)"/>
<path d="M0 0 C1.65 0.33 3.3 0.66 5 1 C5.50531187 4.72846692 6.0033133 8.45787508 6.5 12.1875 C6.64308594 13.24259766 6.78617188 14.29769531 6.93359375 15.38476562 C7.06894531 16.40634766 7.20429687 17.42792969 7.34375 18.48046875 C7.46943359 19.41785889 7.59511719 20.35524902 7.72460938 21.32104492 C7.99004692 23.90317808 8.04936064 26.40650989 8 29 C6 28 6 28 5 25 C4.61092281 22.39573878 4.25727102 19.80014764 3.9375 17.1875 C3.84662109 16.48818359 3.75574219 15.78886719 3.66210938 15.06835938 C3.15819449 11.0180961 2.90366952 7.09083443 3 3 C2.34 3 1.68 3 1 3 C1.14075205 5.93782469 1.2873838 8.87515171 1.4375 11.8125 C1.47681641 12.64587891 1.51613281 13.47925781 1.55664062 14.33789062 C1.59853516 15.14033203 1.64042969 15.94277344 1.68359375 16.76953125 C1.72025146 17.50792236 1.75690918 18.24631348 1.79467773 19.00708008 C1.94842141 21.207495 1.94842141 21.207495 3 24 C2.34 24 1.68 24 1 24 C1 23.34 1 22.68 1 22 C0.34 22 -0.32 22 -1 22 C-1.02895225 18.70835171 -1.0467823 15.41673601 -1.0625 12.125 C-1.07506836 10.71927734 -1.07506836 10.71927734 -1.08789062 9.28515625 C-1.09111328 8.38925781 -1.09433594 7.49335937 -1.09765625 6.5703125 C-1.10289307 5.74289551 -1.10812988 4.91547852 -1.11352539 4.06298828 C-1 2 -1 2 0 0 Z " fill="#9D7431" transform="translate(34,76)"/>
<path d="M0 0 C0.66 0.33 1.32 0.66 2 1 C2 1.99 2 2.98 2 4 C2.66 4 3.32 4 4 4 C4 3.34 4 2.68 4 2 C4.66 2 5.32 2 6 2 C5.34 4.64 4.68 7.28 4 10 C-0.3164922 10.76173392 -3.74433453 11.16063604 -8 10 C-4.91190305 8.23537317 -3.76687864 8 0 8 C-0.33 7.34 -0.66 6.68 -1 6 C-2.051875 6.2784375 -2.051875 6.2784375 -3.125 6.5625 C-6.33888698 7.05156976 -8.83560336 6.66231558 -12 6 C-11.67 4.68 -11.34 3.36 -11 2 C-7.7 2.33 -4.4 2.66 -1 3 C-0.67 2.01 -0.34 1.02 0 0 Z " fill="#AEAFAD" transform="translate(55,21)"/>
<path d="M0 0 C2.88437779 1.29299694 4.87219421 2.65941363 7 5 C5.7251791 7.84383123 4.54862922 10.13754018 2 12 C0.0625 12 0.0625 12 -2 11 C-4.25 8.4375 -4.25 8.4375 -6 6 C-4.02 4.02 -2.04 2.04 0 0 Z " fill="#DA433A" transform="translate(474,83)"/>
<path d="M0 0 C1.2065625 0.0309375 1.2065625 0.0309375 2.4375 0.0625 C3.31640625 6.21484375 3.31640625 6.21484375 3.4375 8.0625 C2.4375 9.0625 2.4375 9.0625 0.15234375 9.16015625 C-1.22244141 9.14275391 -1.22244141 9.14275391 -2.625 9.125 C-3.54410156 9.11597656 -4.46320313 9.10695313 -5.41015625 9.09765625 C-6.12042969 9.08605469 -6.83070313 9.07445313 -7.5625 9.0625 C-7.8925 6.4225 -8.2225 3.7825 -8.5625 1.0625 C-7.3559375 1.0934375 -7.3559375 1.0934375 -6.125 1.125 C-3.0866539 1.050894 -3.0383461 0.074106 0 0 Z " fill="#F08E3B" transform="translate(414.5625,105.9375)"/>
<path d="M0 0 C1.43739513 -0.02712066 2.87493863 -0.04645067 4.3125 -0.0625 C5.51326172 -0.07990234 5.51326172 -0.07990234 6.73828125 -0.09765625 C9 0 9 0 12 1 C12.28571429 9.57142857 12.28571429 9.57142857 10 13 C8.68 13 7.36 13 6 13 C6 12.34 6 11.68 6 11 C6.66 11 7.32 11 8 11 C8 10.01 8 9.02 8 8 C6.35178756 6.96986723 4.68496298 5.96885372 3 5 C3 4.34 3 3.68 3 3 C1.68 3.33 0.36 3.66 -1 4 C-0.67 2.68 -0.34 1.36 0 0 Z " fill="#0C8309" transform="translate(16,79)"/>
<path d="M0 0 C1.98 0 3.96 0 6 0 C6.268125 1.11375 6.53625 2.2275 6.8125 3.375 C7.65809019 7.21840951 7.65809019 7.21840951 11 9 C10.34 12.96 9.68 16.92 9 21 C8.01 21.33 7.02 21.66 6 22 C3.70387244 8.3667426 3.70387244 8.3667426 4 2 C2.68 2 1.36 2 0 2 C0 1.34 0 0.68 0 0 Z " fill="#AB9E8A" transform="translate(35,75)"/>
<path d="M0 0 C0 0.99 0 1.98 0 3 C-0.99 3.33 -1.98 3.66 -3 4 C-0.525 4.99 -0.525 4.99 2 6 C2 6.66 2 7.32 2 8 C1.34 8 0.68 8 0 8 C0 8.99 0 9.98 0 11 C-6.40818182 11.36272727 -6.40818182 11.36272727 -8.9375 9.8125 C-10.32851983 7.43958382 -10.21917317 5.70313576 -10 3 C-6.27034861 0.96564469 -4.33094958 0 0 0 Z " fill="#398BC4" transform="translate(66,49)"/>
<path d="M0 0 C5.75 1.625 5.75 1.625 8 5 C8.1953125 7.26171875 8.1953125 7.26171875 8.125 9.6875 C8.10695313 10.49574219 8.08890625 11.30398437 8.0703125 12.13671875 C8.03550781 13.05904297 8.03550781 13.05904297 8 14 C7.34 14 6.68 14 6 14 C6 14.66 6 15.32 6 16 C5.34 16 4.68 16 4 16 C3.731875 15.360625 3.46375 14.72125 3.1875 14.0625 C2.11332248 11.66868314 2.11332248 11.66868314 -1 11 C-0.6875 9.0625 -0.6875 9.0625 0 7 C0.99 6.67 1.98 6.34 3 6 C3 5.34 3 4.68 3 4 C1.68 4 0.36 4 -1 4 C-0.67 2.68 -0.34 1.36 0 0 Z " fill="#C9C9C9" transform="translate(53,9)"/>
<path d="M0 0 C1.7015625 0.2784375 1.7015625 0.2784375 3.4375 0.5625 C4.613125 0.706875 5.78875 0.85125 7 1 C7.33 0.67 7.66 0.34 8 0 C13.8410596 -0.37086093 13.8410596 -0.37086093 16 0 C16.66 0.99 17.32 1.98 18 3 C16.59459459 8.40540541 16.59459459 8.40540541 15 10 C12.32941149 10.14115161 9.67567762 10.04247107 7 10 C7.66 9.67 8.32 9.34 9 9 C9 7.02 9 5.04 9 3 C6.69 3.33 4.38 3.66 2 4 C1.34 2.68 0.68 1.36 0 0 Z M11 3 C10.67 4.65 10.34 6.3 10 8 C10.66 8 11.32 8 12 8 C12.33 6.35 12.66 4.7 13 3 C12.34 3 11.68 3 11 3 Z " fill="#DB3F41" transform="translate(470,106)"/>
<path d="M0 0 C1.32 0.33 2.64 0.66 4 1 C4 1.66 4 2.32 4 3 C3.01 3.33 2.02 3.66 1 4 C-2.40823583 6.55617687 -3.47559725 10.15269781 -5 14 C-9.62 14 -14.24 14 -19 14 C-19.33 10.7 -19.66 7.4 -20 4 C-18.35 4 -16.7 4 -15 4 C-16.32 4.33 -17.64 4.66 -19 5 C-18.67 7.64 -18.34 10.28 -18 13 C-14.7 12.67 -11.4 12.34 -8 12 C-7.67 9.36 -7.34 6.72 -7 4 C-5.02 4 -3.04 4 -1 4 C-0.67 2.68 -0.34 1.36 0 0 Z " fill="#E8934E" transform="translate(425,102)"/>
<path d="M0 0 C1.26650391 0.00966797 1.26650391 0.00966797 2.55859375 0.01953125 C3.43128906 0.03628906 4.30398437 0.05304687 5.203125 0.0703125 C6.53537109 0.08384766 6.53537109 0.08384766 7.89453125 0.09765625 C10.08100558 0.12116673 12.26692594 0.15402751 14.453125 0.1953125 C13.793125 1.5153125 13.133125 2.8353125 12.453125 4.1953125 C11.48375 3.8446875 10.514375 3.4940625 9.515625 3.1328125 C4.03380027 1.56498839 -1.05605035 2.55935727 -6.484375 3.9453125 C-8.67952635 5.06738169 -8.67952635 5.06738169 -9.859375 7.2578125 C-11.03867788 12.2966521 -11.18914924 17.26848979 -9.546875 22.1953125 C-10.206875 22.1953125 -10.866875 22.1953125 -11.546875 22.1953125 C-13.54903199 18.0658637 -13.87905254 14.76275365 -13.546875 10.1953125 C-12.546875 7.9453125 -12.546875 7.9453125 -11.546875 6.1953125 C-11.546875 5.2053125 -11.546875 4.2153125 -11.546875 3.1953125 C-10.886875 3.5253125 -10.226875 3.8553125 -9.546875 4.1953125 C-9.216875 3.5353125 -8.886875 2.8753125 -8.546875 2.1953125 C-5.62414365 0.36639851 -3.41711868 -0.04617728 0 0 Z " fill="#247320" transform="translate(238.546875,56.8046875)"/>
<path d="M0 0 C0.33 0 0.66 0 1 0 C3.40707965 16.54867257 3.40707965 16.54867257 0 22 C-2.125 22.8125 -2.125 22.8125 -4 23 C-5.85776765 19.86501708 -6.20140476 17.62528568 -6 14 C-4.68 14.33 -3.36 14.66 -2 15 C-1.15465805 12.3583064 -1 10.31517226 -1 7.5 C-1 4.68482774 -0.84534195 2.6416936 0 0 Z " fill="#BEB5B6" transform="translate(43,39)"/>
<path d="M0 0 C5.66590389 2.26636156 5.66590389 2.26636156 7.375 5.9375 C7.71273438 6.62714844 8.05046875 7.31679687 8.3984375 8.02734375 C9 10 9 10 8 13 C5.525 9.04 5.525 9.04 3 5 C2.67 12.26 2.34 19.52 2 27 C1.34 27.33 0.68 27.66 0 28 C0 18.76 0 9.52 0 0 Z " fill="#2A7E25" transform="translate(361,66)"/>
<path d="M0 0 C0.66 0 1.32 0 2 0 C4.125 5.625 4.125 5.625 3 9 C0.03 8.505 0.03 8.505 -3 8 C-3 9.32 -3 10.64 -3 12 C-4.32 12.33 -5.64 12.66 -7 13 C-6.505 13.45375 -6.01 13.9075 -5.5 14.375 C-4 16 -4 16 -4 18 C-5.32 18 -6.64 18 -8 18 C-9.16343227 15.67313547 -9.19895988 14.15278587 -9.25 11.5625 C-9.28867187 10.38880859 -9.28867187 10.38880859 -9.328125 9.19140625 C-9 7 -9 7 -6 4 C-3.36 4.99 -0.72 5.98 2 7 C1.34 4.69 0.68 2.38 0 0 Z " fill="#C4C3C3" transform="translate(27,59)"/>
<path d="M0 0 C0.33 0 0.66 0 1 0 C1 9.24 1 18.48 1 28 C-0.32 28 -1.64 28 -3 28 C-3.2475 27.29875 -3.495 26.5975 -3.75 25.875 C-4.96475048 22.84921039 -4.96475048 22.84921039 -7.125 19.8125 C-9 17 -9 17 -9 15 C-9.99 14.67 -10.98 14.34 -12 14 C-13.25 11.625 -13.25 11.625 -14 9 C-13.67 8.01 -13.34 7.02 -13 6 C-12.70754395 6.47945068 -12.41508789 6.95890137 -12.11376953 7.45288086 C-10.78933742 9.617626 -9.45728658 11.77758084 -8.125 13.9375 C-7.66480469 14.69224609 -7.20460938 15.44699219 -6.73046875 16.22460938 C-6.28574219 16.94326172 -5.84101563 17.66191406 -5.3828125 18.40234375 C-4.97434082 19.06741943 -4.56586914 19.73249512 -4.14501953 20.41772461 C-3.07267006 22.1563403 -3.07267006 22.1563403 -1 23 C-0.67 15.41 -0.34 7.82 0 0 Z " fill="#1C8319" transform="translate(381,49)"/>
<path d="M0 0 C3.33333333 0 6.66666667 0 10 0 C11.94429145 -0.15936815 13.88856727 -0.31912094 15.83203125 -0.48828125 C19.43064984 0.32221843 20.8162346 2.09838784 23 5 C23.58160271 7.80552534 23.47801876 10.46303093 23.3125 13.3125 C23.28994141 14.05306641 23.26738281 14.79363281 23.24414062 15.55664062 C23.1855815 17.37197357 23.09590886 19.18625681 23 21 C22.34 21 21.68 21 21 21 C21 15.72 21 10.44 21 5 C19.35 4.34 17.7 3.68 16 3 C16 2.34 16 1.68 16 1 C14.700625 1.5259375 14.700625 1.5259375 13.375 2.0625 C8.89495686 3.30695643 5.83784089 2.82219198 1.625 0.9375 C1.08875 0.628125 0.5525 0.31875 0 0 Z " fill="#E18D4D" transform="translate(483,74)"/>
<path d="M0 0 C0.598125 0.350625 1.19625 0.70125 1.8125 1.0625 C-0.1675 2.0525 -0.1675 2.0525 -2.1875 3.0625 C-2.1875 3.7225 -2.1875 4.3825 -2.1875 5.0625 C4.94200371 6.96370099 11.44990707 7.28674141 18.8125 7.0625 C18.8125 8.0525 18.8125 9.0425 18.8125 10.0625 C10.3782073 10.51886453 2.95293404 9.23673358 -5.1875 7.0625 C-6.12173645 4.05218256 -6.23199911 3.19599732 -5.1875 0.0625 C-2.1875 -0.9375 -2.1875 -0.9375 0 0 Z " fill="#287F25" transform="translate(13.1875,103.9375)"/>
<path d="M0 0 C0.33 0 0.66 0 1 0 C1.0272616 2.04159095 1.04651345 4.08328963 1.0625 6.125 C1.07410156 7.26195313 1.08570313 8.39890625 1.09765625 9.5703125 C1.005327 12.8129156 0.61389906 15.81932612 0 19 C0.66 19 1.32 19 2 19 C2 22.96 2 26.92 2 31 C0.68 31.33 -0.64 31.66 -2 32 C-1.85888132 28.54145786 -1.71121691 25.08322309 -1.5625 21.625 C-1.52318359 20.65949219 -1.48386719 19.69398437 -1.44335938 18.69921875 C-1.17019178 12.43737688 -0.69676872 6.22902691 0 0 Z " fill="#695C0F" transform="translate(33,79)"/>
<path d="M0 0 C1.98 0 3.96 0 6 0 C6.33 0.66 6.66 1.32 7 2 C5.02 2 3.04 2 1 2 C1 5.63 1 9.26 1 13 C3.64 12.67 6.28 12.34 9 12 C9 9.36 9 6.72 9 4 C9.66 4 10.32 4 11 4 C11.08131463 5.43655854 11.13933559 6.8744483 11.1875 8.3125 C11.22230469 9.11300781 11.25710938 9.91351563 11.29296875 10.73828125 C10.93801608 13.47851584 10.10633718 14.29171079 8 16 C8 15.34 8 14.68 8 14 C6.72125 14.020625 5.4425 14.04125 4.125 14.0625 C0.25 14.125 0.25 14.125 -2 13 C-1.85851011 11.3954444 -1.71164314 9.79136233 -1.5625 8.1875 C-1.48128906 7.29417969 -1.40007812 6.40085937 -1.31640625 5.48046875 C-1 3 -1 3 0 0 Z " fill="#21781D" transform="translate(442,55)"/>
<path d="M0 0 C0.845625 0.495 1.69125 0.99 2.5625 1.5 C6.44294451 3.19328488 8.80900264 3.45719971 13 3 C15.87146994 1.63002843 15.87146994 1.63002843 18 0 C17.67 1.65 17.34 3.3 17 5 C12.545 5.495 12.545 5.495 8 6 C7.67 6.99 7.34 7.98 7 9 C3.86650268 10.04449911 3.01031744 9.93423645 0 9 C0.185625 8.2575 0.37125 7.515 0.5625 6.75 C0.99203108 4.05009037 0.85122974 2.55368923 0 0 Z " fill="#177C11" transform="translate(272,81)"/>
<path d="M0 0 C0.99 0.33 1.98 0.66 3 1 C2.21625 1.598125 1.4325 2.19625 0.625 2.8125 C-2.14574323 4.91085249 -2.14574323 4.91085249 -4 8 C-4.66 8 -5.32 8 -6 8 C-7.85639564 13.56918691 -7.61597842 18.76804316 -5 24 C-8.5147077 20.59866997 -9.89616356 19.24603724 -10.3125 14.25 C-10.24019921 9.81555162 -8.93219923 7.39517806 -6 4 C-2.9375 1.5625 -2.9375 1.5625 0 0 Z " fill="#E04242" transform="translate(91,47)"/>
<path d="M0 0 C0.33 0.66 0.66 1.32 1 2 C0.4225 2.474375 -0.155 2.94875 -0.75 3.4375 C-5.35441704 8.6814194 -7.7336279 14.72731578 -7.390625 21.734375 C-6.3082536 28.0121291 -3.23935243 33.30643124 1 38 C-3.49057919 36.50314027 -5.6652467 32.89704176 -8 29 C-10.1201833 22.6394501 -10.21737604 14.62600875 -7.3125 8.5 C-5.3262412 5.13973421 -2.9083674 2.58521547 0 0 Z " fill="#277622" transform="translate(223,52)"/>
<path d="M0 0 C0.33 0.99 0.66 1.98 1 3 C2.33251796 3.33657804 3.66594456 3.66956852 5 4 C6.51953125 5.5234375 6.51953125 5.5234375 7.8125 7.375 C8.25207031 7.98085937 8.69164062 8.58671875 9.14453125 9.2109375 C10 11 10 11 9 14 C6.69 11.03 4.38 8.06 2 5 C1.67 9.62 1.34 14.24 1 19 C0.34 19 -0.32 19 -1 19 C-1.02683987 16.02077407 -1.04676037 13.04178705 -1.0625 10.0625 C-1.07087891 9.21236328 -1.07925781 8.36222656 -1.08789062 7.48632812 C-1.09111328 6.67744141 -1.09433594 5.86855469 -1.09765625 5.03515625 C-1.10289307 4.2862915 -1.10812988 3.53742676 -1.11352539 2.76586914 C-1 1 -1 1 0 0 Z " fill="#207C1C" transform="translate(321,76)"/>
<path d="M0 0 C4.875 4.75 4.875 4.75 6 7 C6.04205735 11.7524801 5.65795677 15.83029907 3.3125 20 C0.65378805 22.29942655 -1.61098899 23.15274725 -5 24 C-5.33 23.01 -5.66 22.02 -6 21 C-4.02 21 -2.04 21 0 21 C0.66 19.35 1.32 17.7 2 16 C2.66 16 3.32 16 4 16 C4.26932521 11.34947128 4.26932521 11.34947128 3 7 C2.01 7.495 2.01 7.495 1 8 C0 2.25 0 2.25 0 0 Z " fill="#DD4340" transform="translate(108,71)"/>
<path d="M0 0 C4.04540053 2.07736784 6.27712781 3.73815828 8 8 C8.67999435 12.95898319 8.85203548 17.35202158 6 21.625 C5.34 22.40875 4.68 23.1925 4 24 C4 20.6634461 4.3842252 17.46478999 4.78125 14.15625 C5.05046561 11.8637729 5.05046561 11.8637729 5 9 C4.34 9 3.68 9 3 9 C2.01 6.03 1.02 3.06 0 0 Z " fill="#20771C" transform="translate(335,49)"/>
<path d="M0 0 C0.99 0.33 1.98 0.66 3 1 C3.28875 1.78375 3.5775 2.5675 3.875 3.375 C5.28578816 6.66683904 6.93708862 7.30733845 10 9 C10 9.66 10 10.32 10 11 C12.76264289 11.59732819 15.16032769 12 18 12 C18.66 12.33 19.32 12.66 20 13 C21.53668865 13.22467831 23.07968054 13.40796805 24.625 13.5625 C25.44226563 13.64628906 26.25953125 13.73007813 27.1015625 13.81640625 C27.72804688 13.87699219 28.35453125 13.93757813 29 14 C29 14.33 29 14.66 29 15 C13.04022608 15.80695486 13.04022608 15.80695486 7 11 C3.48481527 7.6702316 0.92346297 4.84021972 0 0 Z " fill="#20751B" transform="translate(259,81)"/>
<path d="M0 0 C5.97873264 0.90060764 5.97873264 0.90060764 7.08984375 2.01171875 C7.29296875 4.2265625 7.29296875 4.2265625 7.33984375 6.94921875 C7.37851562 8.29306641 7.37851562 8.29306641 7.41796875 9.6640625 C7.3096875 10.43878906 7.20140625 11.21351562 7.08984375 12.01171875 C3.44566635 14.44117035 1.37743103 14.1735145 -2.91015625 14.01171875 C-4.14903173 11.5339678 -4.07757294 9.77518168 -4.09765625 7.01171875 C-4.11183594 6.12484375 -4.12601562 5.23796875 -4.140625 4.32421875 C-3.84741529 1.38218238 -3.11903102 0.01913516 0 0 Z M-1.91015625 2.01171875 C-1.91015625 5.64171875 -1.91015625 9.27171875 -1.91015625 13.01171875 C1.00636549 13.17852984 1.00636549 13.17852984 4.08984375 13.01171875 C6.46204065 11.06713561 6.46204065 11.06713561 6.40234375 7.51171875 C6.29921875 6.35671875 6.19609375 5.20171875 6.08984375 4.01171875 C2.99739372 1.54946859 2.99739372 1.54946859 -1.91015625 2.01171875 Z " fill="#257F23" transform="translate(323.91015625,54.98828125)"/>
<path d="M0 0 C2.81256281 -0.02684312 5.62487241 -0.04676188 8.4375 -0.0625 C9.23994141 -0.07087891 10.04238281 -0.07925781 10.86914062 -0.08789062 C12.91295221 -0.0965143 14.95683902 -0.0522815 17 0 C18 1 18 1 18.09765625 3.06640625 C18.08605469 3.89011719 18.07445312 4.71382813 18.0625 5.5625 C18.05347656 6.38878906 18.04445312 7.21507813 18.03515625 8.06640625 C18.02355469 8.70449219 18.01195312 9.34257813 18 10 C17.01 10 16.02 10 15 10 C15 7.36 15 4.72 15 2 C10.38 2 5.76 2 1 2 C0.67 1.34 0.34 0.68 0 0 Z " fill="#E3443F" transform="translate(194,85)"/>
<path d="M0 0 C2.97 0.33 5.94 0.66 9 1 C8.67 1.66 8.34 2.32 8 3 C5.03 2.505 5.03 2.505 2 2 C2.18129815 5.43793339 2.18129815 5.43793339 3 9 C4.93597032 10.51294288 4.93597032 10.51294288 7 11 C7.33 9.02 7.66 7.04 8 5 C8.33 5 8.66 5 9 5 C9 6.98 9 8.96 9 11 C8.360625 11.12375 7.72125 11.2475 7.0625 11.375 C6.381875 11.58125 5.70125 11.7875 5 12 C4.67 12.66 4.34 13.32 4 14 C-0.68220339 9.6779661 -0.68220339 9.6779661 -1.9375 7 C-2.02166924 4.30658436 -1.13866026 2.41128054 0 0 Z " fill="#1268AC" transform="translate(60,35)"/>
<path d="M0 0 C-0.69165788 5.41798672 -1.75799248 10.6822785 -3 16 C-3.33 16 -3.66 16 -4 16 C-4.027193 14.41676312 -4.04648306 12.83338938 -4.0625 11.25 C-4.07410156 10.36828125 -4.08570313 9.4865625 -4.09765625 8.578125 C-4.00826198 6.2181162 -3.66912821 4.25501476 -3 2 C-5.0343459 3.41519715 -5.90410393 4.54982123 -6.421875 6.98046875 C-6.66273952 8.98176954 -6.83532741 10.9909944 -7 13 C-7.33 13 -7.66 13 -8 13 C-8 9.04 -8 5.08 -8 1 C-5.29120665 -0.35439668 -2.99066732 -0.06501451 0 0 Z " fill="#7D264E" transform="translate(53,32)"/>
<path d="M0 0 C-0.33 2.31 -0.66 4.62 -1 7 C-3.64 7 -6.28 7 -9 7 C-9.33 5.02 -9.66 3.04 -10 1 C-6.78548731 -0.60725635 -3.56387464 -0.05748185 0 0 Z " fill="#F73332" transform="translate(515,108)"/>
<path d="M0 0 C-0.99 2.31 -1.98 4.62 -3 7 C-3.99 7 -4.98 7 -6 7 C-6.103125 7.721875 -6.20625 8.44375 -6.3125 9.1875 C-7.06793947 12.27793421 -8.15531315 14.41743841 -10 17 C-10.66 17 -11.32 17 -12 17 C-12 18.65 -12 20.3 -12 22 C-12.33 22 -12.66 22 -13 22 C-13.60488416 15.95115842 -13.60488416 15.95115842 -11.921875 13.3046875 C-10.64416007 11.84339283 -9.32330956 10.42013709 -8 9 C-7.67 8.01 -7.34 7.02 -7 6 C-6.34 6 -5.68 6 -5 6 C-5.66 4.35 -6.32 2.7 -7 1 C-4.53721199 -0.231394 -2.7204945 -0.07159196 0 0 Z " fill="#BDBDBE" transform="translate(39,37)"/>
<path d="M0 0 C-0.185625 0.639375 -0.37125 1.27875 -0.5625 1.9375 C-0.706875 2.618125 -0.85125 3.29875 -1 4 C-0.67 4.33 -0.34 4.66 0 5 C-0.92652701 6.17539996 -1.86663387 7.34010577 -2.8125 8.5 C-3.33457031 9.1496875 -3.85664062 9.799375 -4.39453125 10.46875 C-6 12 -6 12 -9 12 C-9 10.35 -9 8.7 -9 7 C-8.34 6.67 -7.68 6.34 -7 6 C-6.505 5.175 -6.01 4.35 -5.5 3.5 C-3.83099263 0.71832104 -3.23301333 0 0 0 Z " fill="#979796" transform="translate(36,47)"/>
<path d="M0 0 C4.03520597 1.58962659 8.01811282 3.28232318 12 5 C10.02 5.99 10.02 5.99 8 7 C7.01 6.34 6.02 5.68 5 5 C2.37468476 4.83286431 2.37468476 4.83286431 0 5 C0 5.66 0 6.32 0 7 C-0.66 7 -1.32 7 -2 7 C-1.67 8.65 -1.34 10.3 -1 12 C-2.32 11.34 -3.64 10.68 -5 10 C-3.66511872 6.40608886 -2.03977277 3.24509304 0 0 Z " fill="#DD4141" transform="translate(82,80)"/>
<path d="M0 0 C0.66 0 1.32 0 2 0 C2 0.99 2 1.98 2 3 C1.34 3 0.68 3 0 3 C-0.33 6.3 -0.66 9.6 -1 13 C-4.7364797 12.06588007 -7.60899585 10.77257035 -11 9 C-11 8.67 -11 8.34 -11 8 C-8.36 7.67 -5.72 7.34 -3 7 C-3 6.01 -3 5.02 -3 4 C-2.34 4 -1.68 4 -1 4 C-0.67 2.68 -0.34 1.36 0 0 Z " fill="#296D9F" transform="translate(69,53)"/>
<path d="M0 0 C1.32 0 2.64 0 4 0 C5.32 5.28 6.64 10.56 8 16 C7.34 16 6.68 16 6 16 C5.67 16.99 5.34 17.98 5 19 C4.34 15.04 3.68 11.08 3 7 C2.34 7.66 1.68 8.32 1 9 C0.29925156 5.846632 0 3.27275026 0 0 Z " fill="#828383" transform="translate(44,72)"/>
<path d="M0 0 C0 1.98 0 3.96 0 6 C2.64 5.67 5.28 5.34 8 5 C8 6.32 8 7.64 8 9 C5.29120665 10.35439668 2.99066732 10.06501451 0 10 C0 9.34 0 8.68 0 8 C-0.66 7.67 -1.32 7.34 -2 7 C-2 6.01 -2 5.02 -2 4 C-2.66 3.67 -3.32 3.34 -4 3 C-1.125 0 -1.125 0 0 0 Z " fill="#A8A8A8" transform="translate(59,106)"/>
<path d="M0 0 C1.99954746 -0.04254356 4.00041636 -0.04080783 6 0 C7 1 7 1 7.1875 3.9375 C7 7 7 7 5 9 C2.3984375 9.1953125 2.3984375 9.1953125 -0.625 9.125 C-2.12933594 9.09792969 -2.12933594 9.09792969 -3.6640625 9.0703125 C-4.43492187 9.04710938 -5.20578125 9.02390625 -6 9 C-6 8.01 -6 7.02 -6 6 C-2.7 6.33 0.6 6.66 4 7 C4 5.35 4 3.7 4 2 C2.68 1.67 1.36 1.34 0 1 C0 0.67 0 0.34 0 0 Z " fill="#DE3A3D" transform="translate(356,107)"/>
<path d="M0 0 C1.65 0.33 3.3 0.66 5 1 C4.51917969 1.35707031 4.03835938 1.71414062 3.54296875 2.08203125 C1.31575162 4.85054672 1.48605989 7.18159023 1.3125 10.6875 C1.21388672 12.45673828 1.21388672 12.45673828 1.11328125 14.26171875 C1.05720703 15.61716797 1.05720703 15.61716797 1 17 C0.34 16.67 -0.32 16.34 -1 16 C-1.4140625 12.83984375 -1.4140625 12.83984375 -1.625 8.9375 C-1.69976562 7.64714844 -1.77453125 6.35679688 -1.8515625 5.02734375 C-1.90054687 4.02832031 -1.94953125 3.02929688 -2 2 C-1.34 2 -0.68 2 0 2 C0 1.34 0 0.68 0 0 Z " fill="#EA9151" transform="translate(490,78)"/>
<path d="M0 0 C0.33 0 0.66 0 1 0 C1.09765625 6.15234375 1.09765625 6.15234375 1 8 C0.67 8.33 0.34 8.66 0 9 C-0.23192865 10.51469448 -0.41215238 12.03754562 -0.5625 13.5625 C-0.64628906 14.38878906 -0.73007812 15.21507812 -0.81640625 16.06640625 C-0.87699219 16.70449219 -0.93757813 17.34257813 -1 18 C-1.66 18 -2.32 18 -3 18 C-3.33 19.65 -3.66 21.3 -4 23 C-4.66 23 -5.32 23 -6 23 C-4.38911645 15.21406284 -2.23456312 7.62571782 0 0 Z " fill="#4270B2" transform="translate(52,36)"/>
<path d="M0 0 C2.9375 0.125 2.9375 0.125 6 1 C7.375 3.5625 7.375 3.5625 8 6 C5.03 6 2.06 6 -1 6 C-1.042721 4.33388095 -1.04063832 2.66617115 -1 1 C-0.67 0.67 -0.34 0.34 0 0 Z " fill="#CBCBC9" transform="translate(61,106)"/>
<path d="M0 0 C1.423125 0.495 1.423125 0.495 2.875 1 C5.77062452 2.10159191 5.77062452 2.10159191 8 2 C7.34 3.65 6.68 5.3 6 7 C2.625 7.625 2.625 7.625 -1 8 C-1.66 7.34 -2.32 6.68 -3 6 C-1.68 6 -0.36 6 1 6 C0.67 4.02 0.34 2.04 0 0 Z " fill="#969DA4" transform="translate(68,62)"/>
<path d="M0 0 C2.86724686 0.57344937 3.8614515 0.8614515 6 3 C5.625 6.125 5.625 6.125 5 9 C3.125 8.75 3.125 8.75 1 8 C-0.3125 6.1875 -0.3125 6.1875 -1 4 C-0.625 1.75 -0.625 1.75 0 0 Z " fill="#147DCA" transform="translate(62,37)"/>
<path d="M0 0 C2.31 0.33 4.62 0.66 7 1 C7.33 6.28 7.66 11.56 8 17 C7.67 17 7.34 17 7 17 C6.34 13.7 5.68 10.4 5 7 C4.01 6.67 3.02 6.34 2 6 C0 1.78947368 0 1.78947368 0 0 Z " fill="#B69CA4" transform="translate(38,36)"/>
<path d="M0 0 C2.64 0 5.28 0 8 0 C8 0.66 8 1.32 8 2 C8.99 1.34 9.98 0.68 11 0 C13.72283905 -0.31254378 16.24442486 -0.13333428 19 0 C20 1 20 1 20.0625 3.5625 C20.041875 4.366875 20.02125 5.17125 20 6 C19.67 4.68 19.34 3.36 19 2 C18.32453125 2.144375 17.6490625 2.28875 16.953125 2.4375 C16.06109375 2.623125 15.1690625 2.80875 14.25 3 C12.92742187 3.2784375 12.92742187 3.2784375 11.578125 3.5625 C9 4 9 4 5 4 C5 3.01 5 2.02 5 1 C3.35 1 1.7 1 0 1 C0 0.67 0 0.34 0 0 Z " fill="#D84041" transform="translate(496,106)"/>
<path d="M0 0 C0.6875 1.625 0.6875 1.625 1 4 C-0.4375 7.25 -0.4375 7.25 -2 10 C-4.97 9.505 -4.97 9.505 -8 9 C-6.68 8.67 -5.36 8.34 -4 8 C-3.67 5.69 -3.34 3.38 -3 1 C-3.99 0.67 -4.98 0.34 -6 0 C-3.50907189 -1.24546405 -2.58919267 -0.7767578 0 0 Z " fill="#E23E3D" transform="translate(111,50)"/>
<path d="M0 0 C1.64574566 -0.02688151 3.29161413 -0.04634123 4.9375 -0.0625 C5.85402344 -0.07410156 6.77054687 -0.08570312 7.71484375 -0.09765625 C10 0 10 0 11 1 C11.04080783 2.99958364 11.04254356 5.00045254 11 7 C10.01 6.34 9.02 5.68 8 5 C7.01 6.485 7.01 6.485 6 8 C6 6.02 6 4.04 6 2 C5.38125 2.185625 4.7625 2.37125 4.125 2.5625 C2 3 2 3 0 2 C0 1.34 0 0.68 0 0 Z " fill="#E24442" transform="translate(389,106)"/>
<path d="M0 0 C0.33 0.66 0.66 1.32 1 2 C1.99 2 2.98 2 4 2 C3.67 2.66 3.34 3.32 3 4 C2.34 3.67 1.68 3.34 1 3 C1.14075205 5.93782469 1.2873838 8.87515171 1.4375 11.8125 C1.47681641 12.64587891 1.51613281 13.47925781 1.55664062 14.33789062 C1.59853516 15.14033203 1.64042969 15.94277344 1.68359375 16.76953125 C1.72025146 17.50792236 1.75690918 18.24631348 1.79467773 19.00708008 C1.94842141 21.207495 1.94842141 21.207495 3 24 C2.34 24 1.68 24 1 24 C1 23.34 1 22.68 1 22 C0.34 22 -0.32 22 -1 22 C-1.02895225 18.70835171 -1.0467823 15.41673601 -1.0625 12.125 C-1.07506836 10.71927734 -1.07506836 10.71927734 -1.08789062 9.28515625 C-1.09111328 8.38925781 -1.09433594 7.49335937 -1.09765625 6.5703125 C-1.10289307 5.74289551 -1.10812988 4.91547852 -1.11352539 4.06298828 C-1 2 -1 2 0 0 Z " fill="#A1711E" transform="translate(34,76)"/>
<path d="M0 0 C1.32 0 2.64 0 4 0 C4 1.65 4 3.3 4 5 C2.68 5 1.36 5 0 5 C-0.16677282 8.41656024 -0.16677282 8.41656024 0 12 C0.66 12.66 1.32 13.32 2 14 C0.35 14 -1.3 14 -3 14 C-2.69249629 11.85344499 -2.3788634 9.70776715 -2.0625 7.5625 C-1.88847656 6.36753906 -1.71445312 5.17257813 -1.53515625 3.94140625 C-1 1 -1 1 0 0 Z " fill="#E0493F" transform="translate(490,102)"/>
<path d="M0 0 C1.98 0.495 1.98 0.495 4 1 C3.34 4.96 2.68 8.92 2 13 C-1.6812654 8.09164613 -1.38327454 6.84493669 -1 1 C-0.67 0.67 -0.34 0.34 0 0 Z " fill="#A09F9A" transform="translate(42,83)"/>
<path d="M0 0 C1.65 0 3.3 0 5 0 C5 0.66 5 1.32 5 2 C6.32 2 7.64 2 9 2 C9 4.64 9 7.28 9 10 C8.01 10 7.02 10 6 10 C5.938125 9.236875 5.87625 8.47375 5.8125 7.6875 C4.7452344 4.15731377 3.1524958 3.69749774 0 2 C0 1.34 0 0.68 0 0 Z " fill="#2B8329" transform="translate(17,90)"/>
<path d="M0 0 C0.33 0 0.66 0 1 0 C1 2.64 1 5.28 1 8 C6.28 8 11.56 8 17 8 C17 11.3 17 14.6 17 18 C16.67 18 16.34 18 16 18 C16 15.03 16 12.06 16 9 C14.24967156 9.14183696 12.49974466 9.28863429 10.75 9.4375 C9.28820312 9.55931641 9.28820312 9.55931641 7.796875 9.68359375 C5.06094908 9.92633237 5.06094908 9.92633237 2.703125 10.59765625 C2.14109375 10.73042969 1.5790625 10.86320312 1 11 C0 10 0 10 -0.09765625 7.71484375 C-0.08605469 6.79832031 -0.07445312 5.88179688 -0.0625 4.9375 C-0.05347656 4.01839844 -0.04445313 3.09929687 -0.03515625 2.15234375 C-0.02355469 1.44207031 -0.01195312 0.73179688 0 0 Z " fill="#2A7727" transform="translate(409,77)"/>
<path d="M0 0 C0.66 0 1.32 0 2 0 C2.13277344 0.68707031 2.26554687 1.37414063 2.40234375 2.08203125 C2.57894531 2.98308594 2.75554688 3.88414063 2.9375 4.8125 C3.19853516 6.15248047 3.19853516 6.15248047 3.46484375 7.51953125 C3.97741153 10.11397171 3.97741153 10.11397171 5 13 C4.01 13 3.02 13 2 13 C-1.18513349 9.10705907 -1.3785594 5.9212722 -1 1 C-0.67 0.67 -0.34 0.34 0 0 Z " fill="#157FCD" transform="translate(56,34)"/>
<path d="M0 0 C0.6875 1.8125 0.6875 1.8125 1 4 C0 5.75 0 5.75 -2 7 C-5.6875 7.1875 -5.6875 7.1875 -9 7 C-9 5.68 -9 4.36 -9 3 C-8.2575 3.020625 -7.515 3.04125 -6.75 3.0625 C-4.29537721 3.00671312 -2.33890739 2.6930096 0 2 C0 1.34 0 0.68 0 0 Z " fill="#D0F5D0" transform="translate(23,96)"/>
<path d="M0 0 C0.33 0 0.66 0 1 0 C1 1.98 1 3.96 1 6 C-4.28 6 -9.56 6 -15 6 C-15 8.64 -15 11.28 -15 14 C-16.85064319 10.87703962 -17.29356154 8.62059232 -17 5 C-16.67 4.67 -16.34 4.34 -16 4 C-13.29891496 4.090916 -10.63069689 4.23740766 -7.9375 4.4375 C-6.79958008 4.51581055 -6.79958008 4.51581055 -5.63867188 4.59570312 C-3.75878278 4.72575835 -1.87934315 4.86228038 0 5 C0 3.35 0 1.7 0 0 Z " fill="#2B7C28" transform="translate(425,52)"/>
<path d="M0 0 C2.31 0 4.62 0 7 0 C7.33 1.98 7.66 3.96 8 6 C5.03 5.67 2.06 5.34 -1 5 C-0.67 3.35 -0.34 1.7 0 0 Z " fill="#8D887A" transform="translate(32,110)"/>
<path d="M0 0 C0.99 0 1.98 0 3 0 C2.67 1.65 2.34 3.3 2 5 C5.465 6.485 5.465 6.485 9 8 C8.67 8.66 8.34 9.32 8 10 C1.25 9.25 1.25 9.25 -1 7 C-0.625 3.375 -0.625 3.375 0 0 Z " fill="#8D8D8D" transform="translate(51,105)"/>
<path d="M0 0 C2 3.75 2 3.75 2 6 C3.65 6 5.3 6 7 6 C7 6.99 7 7.98 7 9 C1.57142857 9.36190476 1.57142857 9.36190476 -0.875 7.8125 C-2.34781139 5.43963721 -2.22223194 3.74086056 -2 1 C-1.34 0.67 -0.68 0.34 0 0 Z " fill="#D9FBFE" transform="translate(58,51)"/>
<path d="M0 0 C1.485 0.99 1.485 0.99 3 2 C3.328125 4.53125 3.328125 4.53125 3.25 7.5 C3.22679687 8.96953125 3.22679687 8.96953125 3.203125 10.46875 C3 13 3 13 2 15 C1.34 15 0.68 15 0 15 C0 10.05 0 5.1 0 0 Z " fill="#EC9951" transform="translate(497,80)"/>
<path d="M0 0 C0.66 0 1.32 0 2 0 C2.66 1.98 3.32 3.96 4 6 C2.02 6 0.04 6 -2 6 C-2.33 6.66 -2.66 7.32 -3 8 C-4.32 6.35 -5.64 4.7 -7 3 C-4.3333581 1.66667905 -2.83319697 2.32897967 0 3 C0 2.01 0 1.02 0 0 Z " fill="#898D88" transform="translate(26,69)"/>
<path d="M0 0 C4.47238653 1.41807378 8.71146306 3.11304374 13 5 C13 5.66 13 6.32 13 7 C10.36 7.33 7.72 7.66 5 8 C4.67 7.34 4.34 6.68 4 6 C4.99 6 5.98 6 7 6 C7 5.34 7 4.68 7 4 C5.68 4.33 4.36 4.66 3 5 C3 4.34 3 3.68 3 3 C2.01 2.67 1.02 2.34 0 2 C0 1.34 0 0.68 0 0 Z " fill="#17476C" transform="translate(56,61)"/>
<path d="M0 0 C2.75 -0.3984375 2.75 -0.3984375 6 -0.375 C7.60875 -0.38660156 7.60875 -0.38660156 9.25 -0.3984375 C10.1575 -0.26695313 11.065 -0.13546875 12 0 C12.66 0.99 13.32 1.98 14 3 C13.01 3.33 12.02 3.66 11 4 C11 5.32 11 6.64 11 8 C10.34 8 9.68 8 9 8 C8 5 8 5 9 1 C5.37 1.66 1.74 2.32 -2 3 C-1.34 2.01 -0.68 1.02 0 0 Z " fill="#E7974D" transform="translate(513,74)"/>
<path d="M0 0 C2.99232073 3.63256954 5.65986709 7.38413175 8.25 11.3125 C8.95640625 12.38113281 9.6628125 13.44976562 10.390625 14.55078125 C10.92171875 15.35902344 11.4528125 16.16726562 12 17 C11.67 17.66 11.34 18.32 11 19 C8.83213717 16.47082669 7.1445859 14.37422233 5.9375 11.25 C5.628125 10.5075 5.31875 9.765 5 9 C4.01 8.67 3.02 8.34 2 8 C0.5522078 5.10441559 0 3.25811062 0 0 Z " fill="#247620" transform="translate(367,55)"/>
<path d="M0 0 C0.33 0 0.66 0 1 0 C1.98951755 4.08175988 2.4570703 7.81018894 2 12 C-0.5 14.4375 -0.5 14.4375 -3 16 C-3.66 15.67 -4.32 15.34 -5 15 C-5 13.35 -5 11.7 -5 10 C-3.68 10.33 -2.36 10.66 -1 11 C0.17571451 7.32589215 0.07366746 3.83070817 0 0 Z " fill="#BFC0BD" transform="translate(42,43)"/>
<path d="M0 0 C0.33 0 0.66 0 1 0 C1 1.65 1 3.3 1 5 C3.64 5 6.28 5 9 5 C9.33 4.34 9.66 3.68 10 3 C10 3.99 10 4.98 10 6 C3 6 -4 6 -11 6 C-11 5.67 -11 5.34 -11 5 C-9.02 4.67 -7.04 4.34 -5 4 C-5 3.67 -5 3.34 -5 3 C-3.35 3 -1.7 3 0 3 C0 2.01 0 1.02 0 0 Z " fill="#D54543" transform="translate(505,110)"/>
<path d="M0 0 C1.32 0.33 2.64 0.66 4 1 C3.67 2.65 3.34 4.3 3 6 C3.66 6 4.32 6 5 6 C4.67 6.99 4.34 7.98 4 9 C2.68 9 1.36 9 0 9 C0 6.03 0 3.06 0 0 Z " fill="#EC9743" transform="translate(442,107)"/>
<path d="M0 0 C1.0828125 0.9590625 1.0828125 0.9590625 2.1875 1.9375 C7.08961989 5.29657973 13.26333164 4.82977245 19 5 C19 5.33 19 5.66 19 6 C10.40858218 6.43995881 3.53146548 6.46309065 -4 2 C-2.68 1.34 -1.36 0.68 0 0 Z " fill="#20711B" transform="translate(228,90)"/>
<path d="M0 0 C0.99 0.33 1.98 0.66 3 1 C2.34 1.66 1.68 2.32 1 3 C0.79127281 5.78302919 0.74359102 7.48718205 2 10 C1.01 10 0.02 10 -1 10 C-1.33 11.65 -1.66 13.3 -2 15 C-2.66 14.67 -3.32 14.34 -4 14 C-3.71715982 12.22773547 -3.42339502 10.457212 -3.125 8.6875 C-2.96257813 7.70136719 -2.80015625 6.71523437 -2.6328125 5.69921875 C-2 3 -2 3 0 0 Z " fill="#327C31" transform="translate(13,86)"/>
<path d="M0 0 C3.42298577 1.14099526 4.14758766 2.00085621 6 5 C6 5.99 6 6.98 6 8 C6.928125 8.433125 6.928125 8.433125 7.875 8.875 C10 10 10 10 12 12 C11.67 12.66 11.34 13.32 11 14 C6.6970341 12.4958659 5.39446112 9.75152588 3.25 5.875 C2.63640625 4.77929688 2.0228125 3.68359375 1.390625 2.5546875 C0.93171875 1.71164063 0.4728125 0.86859375 0 0 Z " fill="#20731D" transform="translate(371,81)"/>
<path d="M0 0 C0.66 0 1.32 0 2 0 C2.0825 0.556875 2.165 1.11375 2.25 1.6875 C3.22610013 4.69714206 4.95188814 6.62154752 7 9 C5.35 9.66 3.7 10.32 2 11 C-0.26881841 7.91440696 -1.05451946 6.57790624 -0.6875 2.6875 C-0.460625 1.800625 -0.23375 0.91375 0 0 Z " fill="#9D9B9F" transform="translate(33,62)"/>
<path d="M0 0 C0.33 0 0.66 0 1 0 C1.22171552 2.60365928 1.42784859 5.20696493 1.625 7.8125 C1.68945312 8.55048828 1.75390625 9.28847656 1.8203125 10.04882812 C2.2265625 15.66015625 2.2265625 15.66015625 0 19 C-1.0690003 15.79299911 -1.13332529 13.43007931 -1.125 10.0625 C-1.12757813 9.02222656 -1.13015625 7.98195313 -1.1328125 6.91015625 C-1.01932023 4.42334029 -0.71928571 2.36907593 0 0 Z " fill="#247520" transform="translate(258,62)"/>
<path d="M0 0 C0.33 0 0.66 0 1 0 C1 4.62 1 9.24 1 14 C-0.32 14.33 -1.64 14.66 -3 15 C-3 14.34 -3 13.68 -3 13 C-2.34 12.67 -1.68 12.34 -1 12 C-1 11.34 -1 10.68 -1 10 C-1.66 10 -2.32 10 -3 10 C-2.01 6.7 -1.02 3.4 0 0 Z " fill="#A6A3AD" transform="translate(45,53)"/>
<path d="M0 0 C0.66 0.33 1.32 0.66 2 1 C2 1.66 2 2.32 2 3 C3.98 3 5.96 3 8 3 C8 3.33 8 3.66 8 4 C6.02 4 4.04 4 2 4 C2 4.66 2 5.32 2 6 C0.35 6.33 -1.3 6.66 -3 7 C-3.33 6.01 -3.66 5.02 -4 4 C-3.67 3.34 -3.34 2.68 -3 2 C-2.01 2 -1.02 2 0 2 C0 1.34 0 0.68 0 0 Z " fill="#40873F" transform="translate(17,74)"/>
<path d="M0 0 C1.5625 1.0625 1.5625 1.0625 3 3 C2.74889902 5.34360915 2.41434251 7.67968195 2 10 C2.33 10.99 2.66 11.98 3 13 C1.0625 12.625 1.0625 12.625 -1 12 C-1.33 11.34 -1.66 10.68 -2 10 C-1.67 9.34 -1.34 8.68 -1 8 C-1 6.824375 -1 5.64875 -1 4.4375 C-1 1 -1 1 0 0 Z " fill="#9C9C9C" transform="translate(54,99)"/>
<path d="M0 0 C2.88437779 1.29299694 4.87219421 2.65941363 7 5 C5.25 8.875 5.25 8.875 3 10 C3 8.02 3 6.04 3 4 C1.02 4 -0.96 4 -3 4 C-2.01 2.68 -1.02 1.36 0 0 Z " fill="#D94844" transform="translate(474,83)"/>
<path d="M0 0 C0.8723412 2.99480917 1.10829766 5.63575911 1.0625 8.75 C1.05347656 9.54921875 1.04445313 10.3484375 1.03515625 11.171875 C1.01775391 12.07679687 1.01775391 12.07679687 1 13 C1.99 13.33 2.98 13.66 4 14 C3.34 15.32 2.68 16.64 2 18 C0.515625 16.9453125 0.515625 16.9453125 -1 15 C-1.328125 11.6796875 -1.328125 11.6796875 -1.25 7.875 C-1.23453125 6.61429687 -1.2190625 5.35359375 -1.203125 4.0546875 C-1 1 -1 1 0 0 Z " fill="#F29B4A" transform="translate(510,77)"/>
<path d="M0 0 C1.65 0 3.3 0 5 0 C4.6875 2.375 4.6875 2.375 4 5 C3.01 5.66 2.02 6.32 1 7 C-0.0625 4.625 -0.0625 4.625 -1 2 C-0.67 1.34 -0.34 0.68 0 0 Z " fill="#B0A89A" transform="translate(39,109)"/>
<path d="M0 0 C0.99 0.33 1.98 0.66 3 1 C2.2575 2.11375 2.2575 2.11375 1.5 3.25 C-1.003491 8.11594026 -0.23217124 13.68585836 0 19 C-0.66 18.67 -1.32 18.34 -2 18 C-2.054348 15.9377952 -2.09294961 13.87517184 -2.125 11.8125 C-2.14820313 10.66394531 -2.17140625 9.51539062 -2.1953125 8.33203125 C-2.00484152 5.08259628 -1.39360127 2.91339479 0 0 Z " fill="#237720" transform="translate(271,60)"/>
<path d="M0 0 C6.36 0.6 6.36 0.6 9 2.25 C10 4 10 4 9.6875 6.6875 C9.460625 7.450625 9.23375 8.21375 9 9 C8.34 9 7.68 9 7 9 C7 7.02 7 5.04 7 3 C5.824375 3.0928125 5.824375 3.0928125 4.625 3.1875 C3.75875 3.125625 2.8925 3.06375 2 3 C1.34 2.01 0.68 1.02 0 0 Z " fill="#3481B8" transform="translate(65,37)"/>
<path d="M0 0 C1.32 0.66 2.64 1.32 4 2 C4 2.66 4 3.32 4 4 C-0.3164922 4.76173392 -3.74433453 5.16063604 -8 4 C-4.91190305 2.23537317 -3.76687864 2 0 2 C0 1.34 0 0.68 0 0 Z " fill="#96A0AB" transform="translate(55,27)"/>
<path d="M0 0 C1.32 0 2.64 0 4 0 C3.67 2.97 3.34 5.94 3 9 C2.67 8.34 2.34 7.68 2 7 C1.01 7.33 0.02 7.66 -1 8 C-0.67 5.36 -0.34 2.72 0 0 Z " fill="#F09C4D" transform="translate(431,103)"/>
<path d="M0 0 C0.33 1.32 0.66 2.64 1 4 C-0.32 4.33 -1.64 4.66 -3 5 C-2.505 5.45375 -2.01 5.9075 -1.5 6.375 C0 8 0 8 0 10 C-1.32 10 -2.64 10 -4 10 C-4.33 7.69 -4.66 5.38 -5 3 C-4.360625 2.87625 -3.72125 2.7525 -3.0625 2.625 C-2.0415625 2.315625 -2.0415625 2.315625 -1 2 C-0.67 1.34 -0.34 0.68 0 0 Z " fill="#C0CCBF" transform="translate(23,67)"/>
<path d="M0 0 C4.97874064 0.47416578 8.06718758 1.9099331 12 5 C12 5.66 12 6.32 12 7 C9.525 6.01 9.525 6.01 7 5 C7 4.34 7 3.68 7 3 C5.02 3 3.04 3 1 3 C0.67 2.01 0.34 1.02 0 0 Z " fill="#77818D" transform="translate(49,63)"/>
<path d="M0 0 C4.77576339 0.4682121 8.04476345 1.24331998 12 4 C11.34 5.65 10.68 7.3 10 9 C8.66666667 7 7.33333333 5 6 3 C2.94570927 1.78715124 2.94570927 1.78715124 0 1 C0 0.67 0 0.34 0 0 Z " fill="#21701D" transform="translate(244,47)"/>
<path d="M0 0 C1.98 0.495 1.98 0.495 4 1 C4.33 4.63 4.66 8.26 5 12 C4.01 12.495 4.01 12.495 3 13 C3 11.35 3 9.7 3 8 C2.34 8 1.68 8 1 8 C1.66 6.35 2.32 4.7 3 3 C1.68 3.33 0.36 3.66 -1 4 C-0.67 2.68 -0.34 1.36 0 0 Z " fill="#B0B1B1" transform="translate(33,44)"/>
<path d="M0 0 C1.98 0.66 3.96 1.32 6 2 C6 3.32 6 4.64 6 6 C5.01 6 4.02 6 3 6 C3 5.34 3 4.68 3 4 C1.68 4 0.36 4 -1 4 C-0.67 2.68 -0.34 1.36 0 0 Z " fill="#E1E1E1" transform="translate(53,9)"/>
<path d="M0 0 C2.475 0.495 2.475 0.495 5 1 C5.33 2.98 5.66 4.96 6 7 C1.125 6.125 1.125 6.125 0 5 C-0.04063832 3.33382885 -0.042721 1.66611905 0 0 Z " fill="#F22B2D" transform="translate(375,107)"/>
<path d="M0 0 C0.99 0.66 1.98 1.32 3 2 C3.40843923 4.71203652 3.13336867 7.2437142 3 10 C1.02 10.33 -0.96 10.66 -3 11 C-2.2884375 9.824375 -2.2884375 9.824375 -1.5625 8.625 C0.60048265 5.439384 0.60048265 5.439384 0.5625 1.875 C0.376875 1.25625 0.19125 0.6375 0 0 Z " fill="#EC9A58" transform="translate(527,77)"/>
<path d="M0 0 C2.3125 0.5625 2.3125 0.5625 5 2 C6.875 5.4375 6.875 5.4375 8 9 C7.67 9.99 7.34 10.98 7 12 C6.0165504 10.56542672 5.03839079 9.12722594 4.0625 7.6875 C3.51722656 6.88699219 2.97195313 6.08648437 2.41015625 5.26171875 C1 3 1 3 0 0 Z " fill="#20761E" transform="translate(362,67)"/>
<path d="M0 0 C2 0 4 0 6 0 C5.67 1.65 5.34 3.3 5 5 C2.625 5.1875 2.625 5.1875 0 5 C-0.66 4.01 -1.32 3.02 -2 2 C-1.34 1.34 -0.68 0.68 0 0 Z " fill="#BAB0B0" transform="translate(72,60)"/>
<path d="M0 0 C2.97 0.495 2.97 0.495 6 1 C6 2.65 6 4.3 6 6 C4.02 5.34 2.04 4.68 0 4 C0 2.68 0 1.36 0 0 Z " fill="#A0A8B1" transform="translate(71,52)"/>
<path d="M0 0 C1.44096586 0.42594588 2.87768712 0.86626633 4.3125 1.3125 C5.11300781 1.55613281 5.91351563 1.79976563 6.73828125 2.05078125 C9.09964573 3.04182023 10.33879993 4.08074943 12 6 C5.25 5.125 5.25 5.125 3 4 C3 3.34 3 2.68 3 2 C2.01 2 1.02 2 0 2 C0 1.34 0 0.68 0 0 Z " fill="#E03A3D" transform="translate(96,65)"/>
<path d="M0 0 C0.99 0.99 1.98 1.98 3 3 C3.99 2.01 4.98 1.02 6 0 C6.33 0.99 6.66 1.98 7 3 C6.01 3.33 5.02 3.66 4 4 C4 4.66 4 5.32 4 6 C2.68 5.67 1.36 5.34 0 5 C-0.5625 3.0625 -0.5625 3.0625 -1 1 C-0.67 0.67 -0.34 0.34 0 0 Z " fill="#959496" transform="translate(35,30)"/>
<path d="M0 0 C0.99 0.66 1.98 1.32 3 2 C-1.75 5 -1.75 5 -4 5 C-4.33 5.66 -4.66 6.32 -5 7 C-5.99 6.34 -6.98 5.68 -8 5 C-7.67 4.34 -7.34 3.68 -7 3 C-6.34 3.33 -5.68 3.66 -5 4 C-4.67 3.34 -4.34 2.68 -4 2 C-1.9375 0.875 -1.9375 0.875 0 0 Z " fill="#187015" transform="translate(234,57)"/>
<path d="M0 0 C0.66 0.33 1.32 0.66 2 1 C1.38125 1.0825 0.7625 1.165 0.125 1.25 C-2.1765144 1.79994195 -2.1765144 1.79994195 -3.125 4 C-3.41375 4.66 -3.7025 5.32 -4 6 C-4.99 6.495 -4.99 6.495 -6 7 C-8.125 6.0625 -8.125 6.0625 -10 5 C-8.38007835 4.13624104 -6.75388139 3.28424146 -5.125 2.4375 C-4.22007812 1.96183594 -3.31515625 1.48617187 -2.3828125 0.99609375 C-1.20332031 0.50302734 -1.20332031 0.50302734 0 0 Z " fill="#1A7615" transform="translate(275,47)"/>
<path d="M0 0 C0.99 0.33 1.98 0.66 3 1 C2.67 2.65 2.34 4.3 2 6 C-0.4375 5.625 -0.4375 5.625 -3 5 C-3.33 4.34 -3.66 3.68 -4 3 C-2.68 3 -1.36 3 0 3 C0 2.01 0 1.02 0 0 Z " fill="#0E7EC8" transform="translate(66,49)"/>
<path d="M0 0 C0.99 0.33 1.98 0.66 3 1 C2.67 2.65 2.34 4.3 2 6 C0.68 6.33 -0.64 6.66 -2 7 C-2.33 6.34 -2.66 5.68 -3 5 C-1.5625 2.375 -1.5625 2.375 0 0 Z " fill="#DCDCDC" transform="translate(25,46)"/>
<path d="M0 0 C0 0.99 0 1.98 0 3 C-1.98 3.33 -3.96 3.66 -6 4 C-6.33 2.68 -6.66 1.36 -7 0 C-3.86650268 -1.04449911 -3.01031744 -0.93423645 0 0 Z " fill="#F83230" transform="translate(478,87)"/>
<path d="M0 0 C3.63 0 7.26 0 11 0 C11 2.97 11 5.94 11 9 C10.01 9 9.02 9 8 9 C8.66 6.36 9.32 3.72 10 1 C6.7 1 3.4 1 0 1 C0 0.67 0 0.34 0 0 Z " fill="#1A7912" transform="translate(414,86)"/>
<path d="M0 0 C2.5625 2.25 2.5625 2.25 5 5 C4.8125 7.3125 4.8125 7.3125 4 9 C3.67 8.34 3.34 7.68 3 7 C2.01 7.495 2.01 7.495 1 8 C0 2.25 0 2.25 0 0 Z " fill="#EC3B3A" transform="translate(108,71)"/>
<path d="M0 0 C2.62153553 3.93230329 3 7.32335261 3 12 C2.01 12.495 2.01 12.495 1 13 C0.63779734 11.20994059 0.28547531 9.41787943 -0.0625 7.625 C-0.25972656 6.62726563 -0.45695312 5.62953125 -0.66015625 4.6015625 C-1 2 -1 2 0 0 Z " fill="#8D8D8E" transform="translate(49,72)"/>
<path d="M0 0 C0 1.65 0 3.3 0 5 C-0.82757813 4.50886719 -0.82757813 4.50886719 -1.671875 4.0078125 C-4.38780923 2.83212285 -6.30551759 2.79751362 -9.25 2.875 C-10.58804687 2.90207031 -10.58804687 2.90207031 -11.953125 2.9296875 C-12.62859375 2.95289063 -13.3040625 2.97609375 -14 3 C-11.52580611 0.52580611 -10.41969876 0.64340659 -7 0.375 C-6.113125 0.30023438 -5.22625 0.22546875 -4.3125 0.1484375 C-2.87710277 0.05630052 -1.43835129 0 0 0 Z " fill="#217519" transform="translate(289,56)"/>
<path d="M0 0 C-0.66 0 -1.32 0 -2 0 C-2 1.32 -2 2.64 -2 4 C-4.97 3.505 -4.97 3.505 -8 3 C-8 2.34 -8 1.68 -8 1 C-4.93251126 -0.86240388 -3.40254489 -1.2151946 0 0 Z " fill="#957880" transform="translate(47,33)"/>
<path d="M0 0 C1.32 0 2.64 0 4 0 C3.34 2.31 2.68 4.62 2 7 C3.32 6.67 4.64 6.34 6 6 C6 6.66 6 7.32 6 8 C4.35 8 2.7 8 1 8 C0.67 5.36 0.34 2.72 0 0 Z " fill="#F39247" transform="translate(406,107)"/>
<path d="M0 0 C1.65 0.33 3.3 0.66 5 1 C4.67 2.65 4.34 4.3 4 6 C1.36 6 -1.28 6 -4 6 C-4 5.67 -4 5.34 -4 5 C-2.02 4.67 -0.04 4.34 2 4 C1.34 2.68 0.68 1.36 0 0 Z " fill="#F2302A" transform="translate(356,108)"/>
<path d="M0 0 C1.32 0.33 2.64 0.66 4 1 C4.33 2.32 4.66 3.64 5 5 C3.02 5 1.04 5 -1 5 C-1.33 4.01 -1.66 3.02 -2 2 C-1.34 2 -0.68 2 0 2 C0 1.34 0 0.68 0 0 Z " fill="#494D7E" transform="translate(62,31)"/>
<path d="M0 0 C2.64 0 5.28 0 8 0 C7.01 0.33 6.02 0.66 5 1 C5 1.66 5 2.32 5 3 C4.34 3 3.68 3 3 3 C2.67 3.99 2.34 4.98 2 6 C1.67 5.01 1.34 4.02 1 3 C0.34 3 -0.32 3 -1 3 C-0.67 2.01 -0.34 1.02 0 0 Z " fill="#DA4440" transform="translate(378,106)"/>
<path d="M0 0 C3.3 0 6.6 0 10 0 C9.67 1.32 9.34 2.64 9 4 C7.35 4 5.7 4 4 4 C4.66 3.34 5.32 2.68 6 2 C3.03 1.505 3.03 1.505 0 1 C0 0.67 0 0.34 0 0 Z " fill="#D9423C" transform="translate(354,102)"/>
<path d="M0 0 C1.65 0 3.3 0 5 0 C5.33 1.32 5.66 2.64 6 4 C3.03 3.505 3.03 3.505 0 3 C0 2.01 0 1.02 0 0 Z " fill="#E3FAE2" transform="translate(17,94)"/>
<path d="M0 0 C0.33 0 0.66 0 1 0 C1.144375 0.78375 1.28875 1.5675 1.4375 2.375 C1.87798925 4.96421018 1.87798925 4.96421018 3 7 C0.69 7 -1.62 7 -4 7 C-3.67 6.01 -3.34 5.02 -3 4 C-2.34 3.67 -1.68 3.34 -1 3 C-0.67 2.01 -0.34 1.02 0 0 Z " fill="#1A780E" transform="translate(360,88)"/>
<path d="M0 0 C0.66 0 1.32 0 2 0 C2 0.99 2 1.98 2 3 C3.98 3 5.96 3 8 3 C8 3.66 8 4.32 8 5 C5.03 5 2.06 5 -1 5 C-1 4.34 -1 3.68 -1 3 C-0.34 3 0.32 3 1 3 C0.67 2.01 0.34 1.02 0 0 Z " fill="#6D6C6C" transform="translate(41,24)"/>
<path d="M0 0 C1.65 0 3.3 0 5 0 C4.34 1.98 3.68 3.96 3 6 C1.68 6 0.36 6 -1 6 C-0.67 4.02 -0.34 2.04 0 0 Z " fill="#EA352D" transform="translate(390,108)"/>
<path d="M0 0 C1.32 0.33 2.64 0.66 4 1 C4 1.66 4 2.32 4 3 C0.36576791 5.32590854 -2.77088331 5.16265833 -7 5 C-7 4.67 -7 4.34 -7 4 C-5.02 4 -3.04 4 -1 4 C-0.67 2.68 -0.34 1.36 0 0 Z " fill="#D99252" transform="translate(425,102)"/>
<path d="M0 0 C1.4540625 0.0309375 1.4540625 0.0309375 2.9375 0.0625 C3.2675 0.7225 3.5975 1.3825 3.9375 2.0625 C2.2875 2.3925 0.6375 2.7225 -1.0625 3.0625 C-1.0625 3.7225 -1.0625 4.3825 -1.0625 5.0625 C-3.0625 4.0625 -3.0625 4.0625 -4.0625 1.0625 C-3.0625 0.0625 -3.0625 0.0625 0 0 Z " fill="#ED302A" transform="translate(357.0625,102.9375)"/>
<path d="M0 0 C0.99 0.33 1.98 0.66 3 1 C3.33 1.99 3.66 2.98 4 4 C1.03 3.67 -1.94 3.34 -5 3 C-2 1 -2 1 0 0 Z " fill="#1B7519" transform="translate(249,82)"/>
<path d="M0 0 C0.33 0.66 0.66 1.32 1 2 C1.99 2 2.98 2 4 2 C3.67 2.66 3.34 3.32 3 4 C2.34 3.67 1.68 3.34 1 3 C1 7.29 1 11.58 1 16 C0.67 16 0.34 16 0 16 C-0.19441368 13.7089095 -0.38033135 11.41709663 -0.5625 9.125 C-0.71912109 7.21074219 -0.71912109 7.21074219 -0.87890625 5.2578125 C-1 2 -1 2 0 0 Z " fill="#927221" transform="translate(34,76)"/>
<path d="M0 0 C-3.5486135 2.36574234 -4.5764525 2.10865265 -8.6875 1.625 C-10.17830078 1.45871094 -10.17830078 1.45871094 -11.69921875 1.2890625 C-12.45847656 1.19367188 -13.21773437 1.09828125 -14 1 C-14 0.67 -14 0.34 -14 0 C-4.58997722 -1.33257403 -4.58997722 -1.33257403 0 0 Z " fill="#2C7722" transform="translate(33,78)"/>
<path d="M0 0 C2.475 0.495 2.475 0.495 5 1 C5 4.3 5 7.6 5 11 C4.01 11 3.02 11 2 11 C2.33 10.67 2.66 10.34 3 10 C3.50610907 5.2045846 3.50610907 5.2045846 1.5 1.0625 C1.005 0.711875 0.51 0.36125 0 0 Z " fill="#1C7717" transform="translate(326,56)"/>
<path d="M0 0 C0.99 0.33 1.98 0.66 3 1 C3 2.98 3 4.96 3 7 C2.01 7 1.02 7 0 7 C0 4.69 0 2.38 0 0 Z " fill="#F03935" transform="translate(483,108)"/>
<path d="M0 0 C2.31 0 4.62 0 7 0 C7.33 0.99 7.66 1.98 8 3 C5.69 3 3.38 3 1 3 C0.67 2.01 0.34 1.02 0 0 Z " fill="#C4CDB6" transform="translate(24,75)"/>
<path d="M0 0 C0.66 0.33 1.32 0.66 2 1 C1.49396008 3.16874252 1.00016187 4.99967627 0 7 C-0.99 6.67 -1.98 6.34 -3 6 C-1.125 1.125 -1.125 1.125 0 0 Z " fill="#C9C9C9" transform="translate(22,52)"/>
<path d="M0 0 C0 0.66 0 1.32 0 2 C-0.66 2 -1.32 2 -2 2 C-2.33 2.66 -2.66 3.32 -3 4 C-3 3.34 -3 2.68 -3 2 C-5.86724686 2.57344937 -6.8614515 2.8614515 -9 5 C-9 3.68 -9 2.36 -9 1 C-5.92677456 0.08941469 -3.19902639 -0.08886184 0 0 Z " fill="#4E7FAB" transform="translate(62,31)"/>
<path d="M0 0 C1.32 0 2.64 0 4 0 C3.67 0.66 3.34 1.32 3 2 C2.34 1.67 1.68 1.34 1 1 C1 1.99 1 2.98 1 4 C1.66 4 2.32 4 3 4 C3 4.66 3 5.32 3 6 C1.68 6 0.36 6 -1 6 C-1.042721 4.33388095 -1.04063832 2.66617115 -1 1 C-0.67 0.67 -0.34 0.34 0 0 Z " fill="#C3C3C3" transform="translate(61,106)"/>
<path d="M0 0 C0.99 1.32 1.98 2.64 3 4 C0.94766315 6.2477975 -0.00667261 7.0022242 -3 8 C-3.33 7.34 -3.66 6.68 -4 6 C-3.01 5.34 -2.02 4.68 -1 4 C-0.27617533 1.94074861 -0.27617533 1.94074861 0 0 Z " fill="#24721F" transform="translate(253,87)"/>
<path d="M0 0 C0.33 0.66 0.66 1.32 1 2 C0.67 2.99 0.34 3.98 0 5 C-3.63 5 -7.26 5 -11 5 C-11 4.67 -11 4.34 -11 4 C-10.37351562 3.87882812 -9.74703125 3.75765625 -9.1015625 3.6328125 C-8.28429687 3.46523437 -7.46703125 3.29765625 -6.625 3.125 C-5.81289063 2.96257812 -5.00078125 2.80015625 -4.1640625 2.6328125 C-1.81326077 2.13341068 -1.81326077 2.13341068 0 0 Z " fill="#1E781C" transform="translate(289,81)"/>
<path d="M0 0 C0 0.66 0 1.32 0 2 C-3.375 2.625 -3.375 2.625 -7 3 C-7.66 2.34 -8.32 1.68 -9 1 C-5.92677456 0.08941469 -3.19902639 -0.08886184 0 0 Z " fill="#7B8286" transform="translate(74,67)"/>
<path d="M0 0 C0.28875 0.61875 0.5775 1.2375 0.875 1.875 C1.93720042 4.13325765 1.93720042 4.13325765 4 6 C6.57061311 6.64767793 6.57061311 6.64767793 9 7 C9 7.33 9 7.66 9 8 C6.36 8 3.72 8 1 8 C0.67 5.36 0.34 2.72 0 0 Z " fill="#4691C2" transform="translate(55,53)"/>
<path d="M0 0 C4.75 0.875 4.75 0.875 7 2 C6.34 3.32 5.68 4.64 5 6 C4.34 5.01 3.68 4.02 3 3 C2.01 2.67 1.02 2.34 0 2 C0 1.34 0 0.68 0 0 Z " fill="#C6C5CC" transform="translate(70,56)"/>
<path d="M0 0 C2.475 0.495 2.475 0.495 5 1 C4.67 2.32 4.34 3.64 4 5 C2.68 5 1.36 5 0 5 C0 3.35 0 1.7 0 0 Z " fill="#D64543" transform="translate(387,115)"/>
<path d="M0 0 C0.66 0 1.32 0 2 0 C1.67 1.98 1.34 3.96 1 6 C-0.65 6 -2.3 6 -4 6 C-3 4 -3 4 0 3 C0 2.01 0 1.02 0 0 Z " fill="#D13942" transform="translate(367,110)"/>
<path d="M0 0 C1.7074998 1.28062485 3.37373596 2.61767557 5 4 C5 4.66 5 5.32 5 6 C3.35 5.67 1.7 5.34 0 5 C0 3.35 0 1.7 0 0 Z " fill="#24741C" transform="translate(344,89)"/>
<path d="M0 0 C0.33 0.99 0.66 1.98 1 3 C-1.3125 4.5625 -1.3125 4.5625 -4 6 C-4.99 5.67 -5.98 5.34 -7 5 C-7 4.34 -7 3.68 -7 3 C-5.02 3 -3.04 3 -1 3 C-0.67 2.01 -0.34 1.02 0 0 Z " fill="#E73D42" transform="translate(109,89)"/>
<path d="M0 0 C5.75 0.75 5.75 0.75 8 3 C4.23375329 4.25541557 2.62811066 3.37061958 -1 2 C-0.67 1.34 -0.34 0.68 0 0 Z " fill="#064071" transform="translate(48,58)"/>
<path d="M0 0 C0.66 1.32 1.32 2.64 2 4 C1.01 4.99 0.02 5.98 -1 7 C-2 6 -2 6 -2.0625 3.4375 C-2.041875 2.633125 -2.02125 1.82875 -2 1 C-1.34 0.67 -0.68 0.34 0 0 Z " fill="#B2E4F8" transform="translate(58,51)"/>
<path d="M0 0 C0.33 0 0.66 0 1 0 C1 1.98 1 3.96 1 6 C-0.65 6 -2.3 6 -4 6 C-4 5.34 -4 4.68 -4 4 C-2.68 3.34 -1.36 2.68 0 2 C0 1.34 0 0.68 0 0 Z " fill="#E68E47" transform="translate(426,110)"/>
<path d="M0 0 C0.66 1.32 1.32 2.64 2 4 C2.33 3.67 2.66 3.34 3 3 C3.33 3.99 3.66 4.98 4 6 C2.35 6 0.7 6 -1 6 C-0.67 4.02 -0.34 2.04 0 0 Z " fill="#DA4443" transform="translate(464,110)"/>
<path d="M0 0 C0.33 0 0.66 0 1 0 C1.33 2.64 1.66 5.28 2 8 C1.01 8 0.02 8 -1 8 C-1.125 2.25 -1.125 2.25 0 0 Z " fill="#A3670B" transform="translate(38,96)"/>
<path d="M0 0 C-0.66 1.32 -1.32 2.64 -2 4 C-2.99 4 -3.98 4 -5 4 C-5.33 2.68 -5.66 1.36 -6 0 C-2.25 -1.125 -2.25 -1.125 0 0 Z " fill="#187B12" transform="translate(340,70)"/>
<path d="M0 0 C1.32 0 2.64 0 4 0 C4 0.99 4 1.98 4 3 C2.35 3 0.7 3 -1 3 C-0.67 2.01 -0.34 1.02 0 0 Z " fill="#D2453C" transform="translate(522,113)"/>
<path d="M0 0 C1.65 0 3.3 0 5 0 C4.67 0.99 4.34 1.98 4 3 C2.68 3 1.36 3 0 3 C0 2.01 0 1.02 0 0 Z " fill="#DE3E3C" transform="translate(516,113)"/>
</svg>
